            <svg
              width="119"
              height="113"
              viewBox="0 0 119 113"
              fill="none"
              xmlns="http://www.w3.org/2000/svg"
            >
              <path
                fill-rule="evenodd"
                clip-rule="evenodd"
                d="M59.5 0C92.2714 0 119 25.3809 119 56.5C119 87.6191 92.2714 113 59.5 113C26.7286 113 0 87.6191 0 56.5C0 25.3809 26.7286 0 59.5 0Z"
                fill="#DCDCDC"
              />
              <path
                fill-rule="evenodd"
                clip-rule="evenodd"
                d="M59.5 0C92.2714 0 119 25.3809 119 56.5C119 87.6191 92.2714 113 59.5 113C26.7286 113 0 87.6191 0 56.5C0 25.3809 26.7286 0 59.5 0ZM59.5002 1.03229C91.6726 1.03229 117.913 25.9495 117.913 56.4998C117.913 87.0504 91.6726 111.968 59.5002 111.968C27.3275 111.968 1.08704 87.0505 1.08704 56.4998C1.08704 25.9495 27.3273 1.03229 59.5002 1.03229V1.03229Z"
                fill="#4B4B4B"
              />
              <path
                fill-rule="evenodd"
                clip-rule="evenodd"
                d="M118.598 49.9665C118.86 52.1112 119 54.2906 119 56.5C119 87.6191 92.2715 113 59.5 113C55.6261 113 51.8385 112.641 48.1677 111.964C48.1677 111.926 57.2742 112.522 58.4153 112.522C91.5067 112.522 118.497 86.893 118.497 55.4696C118.497 54.5423 117.863 49.9665 118.598 49.9665L118.598 49.9665Z"
                fill="#0A0A0A"
              />
              <path
                fill-rule="evenodd"
                clip-rule="evenodd"
                d="M59.5 0C61.5129 0 63.5024 0.0967422 65.4648 0.283754C65.4648 1.1169 61.1428 0.47756 60.0914 0.47756C27.2714 0.47756 0.503089 25.8964 0.503089 57.0612C0.503089 58.1468 1.31198 64.3701 0.582138 64.3701C0.201543 61.7967 0 59.1703 0 56.5C0 25.3809 26.7285 4.2453e-05 59.5 4.2453e-05L59.5 0Z"
                fill="#A1A1A1"
              />
              <path
                d="M93.8671 65.6987H89.9577V74.0969H93.8671V65.6987Z"
                fill="#FF5A5A"
              />
              <path
                d="M100.16 65.6987H96.2507V74.0969H100.16V65.6987Z"
                fill="#FF5A5A"
              />
              <path
                d="M93.8672 44.1896H89.9578V52.5877H93.8672V44.1896Z"
                fill="#FF5A5A"
              />
              <path
                d="M68.7022 65.6987H64.7928V74.0969H68.7022V65.6987Z"
                fill="#78FF78"
              />
              <path
                d="M74.9952 65.6987H71.0858V74.0969H74.9952V65.6987Z"
                fill="#78FF78"
              />
              <path
                d="M68.7022 54.8531H64.7928V63.3363H68.7022V54.8531Z"
                fill="#78FF78"
              />
              <path
                d="M74.9952 54.8531H71.0858V63.3363H74.9952V54.8531Z"
                fill="#78FF78"
              />
              <path
                d="M68.7022 44.1896H64.7928V52.5877H68.7022V44.1896Z"
                fill="#78FF78"
              />
              <path
                d="M74.9952 44.1896H71.0858V52.5877H74.9952V44.1896Z"
                fill="#78FF78"
              />
              <path
                d="M68.7022 33.4351H64.7928V41.8332H68.7022V33.4351Z"
                fill="#78FF78"
              />
              <path
                d="M74.9952 33.4351H71.0858V41.8332H74.9952V33.4351Z"
                fill="#78FF78"
              />
              <path
                d="M68.7022 22.6807H64.7928V31.0787H68.7022V22.6807Z"
                fill="#78FF78"
              />
              <path
                d="M74.9952 22.6807H71.0858V31.0787H74.9952V22.6807Z"
                fill="#78FF78"
              />
              <path
                fill-rule="evenodd"
                clip-rule="evenodd"
                d="M64.1554 74.6775H69.3366V65.1179H64.1554V74.6775ZM64.7913 74.0968H68.7007V65.6986H64.7913V74.0968Z"
                fill="#1F1A17"
              />
              <path
                fill-rule="evenodd"
                clip-rule="evenodd"
                d="M70.4484 74.6775H75.6295V65.1179H70.4484V74.6775ZM71.0843 74.0968H74.9937V65.6986H71.0843V74.0968Z"
                fill="#1F1A17"
              />
              <path
                fill-rule="evenodd"
                clip-rule="evenodd"
                d="M89.3239 74.6775H94.5049V65.1179H89.3239V74.6775ZM89.9597 74.0968H93.8691V65.6986H89.9597V74.0968Z"
                fill="#1F1A17"
              />
              <path
                fill-rule="evenodd"
                clip-rule="evenodd"
                d="M95.6168 74.6775H100.798V65.1179H95.6168V74.6775ZM96.2527 74.0968H100.162V65.6986H96.2527V74.0968Z"
                fill="#1F1A17"
              />
              <path
                fill-rule="evenodd"
                clip-rule="evenodd"
                d="M64.1554 63.9229H69.3366V54.2664H64.1554V63.9229ZM64.7913 63.3362H68.7007V54.853H64.7913V63.3362Z"
                fill="#1F1A17"
              />
              <path
                fill-rule="evenodd"
                clip-rule="evenodd"
                d="M70.4484 63.9229H75.6295V54.2664H70.4484V63.9229ZM71.0843 63.3362H74.9937V54.853H71.0843V63.3362Z"
                fill="#1F1A17"
              />
              <path
                fill-rule="evenodd"
                clip-rule="evenodd"
                d="M64.1554 53.1683H69.3366V43.6088H64.1554V53.1683ZM64.7913 52.5876H68.7007V44.1895H64.7913V52.5876Z"
                fill="#1F1A17"
              />
              <path
                fill-rule="evenodd"
                clip-rule="evenodd"
                d="M70.4484 53.1683H75.6295V43.6088H70.4484V53.1683ZM71.0843 52.5876H74.9937V44.1895H71.0843V52.5876Z"
                fill="#1F1A17"
              />
              <path
                fill-rule="evenodd"
                clip-rule="evenodd"
                d="M89.3239 53.1683H94.5049V43.6088H89.3239V53.1683ZM89.9597 52.5876H93.8691V44.1895H89.9597V52.5876Z"
                fill="#1F1A17"
              />
              <path
                fill-rule="evenodd"
                clip-rule="evenodd"
                d="M64.1554 42.4138H69.3366V32.8542H64.1554V42.4138ZM64.7913 41.8331H68.7007V33.435H64.7913V41.8331Z"
                fill="#1F1A17"
              />
              <path
                fill-rule="evenodd"
                clip-rule="evenodd"
                d="M70.4484 42.4138H75.6295V32.8542H70.4484V42.4138ZM71.0843 41.8331H74.9937V33.435H71.0843V41.8331Z"
                fill="#1F1A17"
              />
              <path
                fill-rule="evenodd"
                clip-rule="evenodd"
                d="M64.1554 31.6593H69.3366V22.0999H64.1554V31.6593ZM64.7914 31.0786H68.7008V22.6806H64.7914V31.0786Z"
                fill="#1F1A17"
              />
              <path
                fill-rule="evenodd"
                clip-rule="evenodd"
                d="M70.4484 31.6593H75.6295V22.0999H70.4484V31.6593ZM71.0843 31.0786H74.9937V22.6806H71.0843V31.0786Z"
                fill="#1F1A17"
              />
              <path
                fill-rule="evenodd"
                clip-rule="evenodd"
                d="M76.7379 74.6775H81.919V65.1179H76.7379V74.6775ZM77.3738 74.0968H81.2832V65.6986H77.3738V74.0968Z"
                fill="#1F1A17"
              />
              <path
                fill-rule="evenodd"
                clip-rule="evenodd"
                d="M83.0309 53.1684H88.212V43.6088H83.0309V53.1684ZM83.6668 52.5877H87.5762V44.1895H83.6668V52.5877Z"
                fill="#1F1A17"
              />
              <path
                fill-rule="evenodd"
                clip-rule="evenodd"
                d="M76.7379 53.1683H81.919V43.6088H76.7379V53.1683ZM77.3738 52.5876H81.2832V44.1895H77.3738V52.5876Z"
                fill="#1F1A17"
              />
              <path
                fill-rule="evenodd"
                clip-rule="evenodd"
                d="M83.0309 31.6595H88.212V22.1001H83.0309V31.6595ZM83.6668 31.0788H87.5762V22.6808H83.6668V31.0788Z"
                fill="#1F1A17"
              />
              <path
                fill-rule="evenodd"
                clip-rule="evenodd"
                d="M76.7379 31.6593H81.919V22.0999H76.7379V31.6593ZM77.3738 31.0786H81.2832V22.6806H77.3738V31.0786Z"
                fill="#1F1A17"
              />
              <path
                fill-rule="evenodd"
                clip-rule="evenodd"
                d="M83.0309 74.6775H88.212V65.1179H83.0309V74.6775ZM83.6668 74.0968H87.5761V65.6986H83.6668V74.0968Z"
                fill="#1F1A17"
              />
              <path
                d="M81.2846 65.6987H77.3752V74.0969H81.2846V65.6987Z"
                fill="#FFF500"
              />
              <path
                d="M87.5776 44.1897H83.6682V52.5878H87.5776V44.1897Z"
                fill="#FFF500"
              />
              <path
                d="M81.2846 44.1896H77.3752V52.5877H81.2846V44.1896Z"
                fill="#FFF500"
              />
              <path
                d="M87.5776 22.6807H83.6682V31.0787H87.5776V22.6807Z"
                fill="#FFF500"
              />
              <path
                d="M81.2857 22.6807H77.3763V31.0787H81.2857V22.6807Z"
                fill="#FFF500"
              />
              <path
                d="M87.5776 65.6987H83.6682V74.0969H87.5776V65.6987Z"
                fill="#FFF500"
              />
              <path
                fill-rule="evenodd"
                clip-rule="evenodd"
                d="M60.7444 92.73L60.8403 92.6968L61.022 92.6472L61.0845 92.629L61.1501 92.6101L61.2124 92.5923L61.2605 92.5789L61.3281 92.4994L61.5751 92.4269L61.5937 92.4206L61.6124 92.4132L61.6309 92.4051L61.6493 92.3959L61.6691 92.3851L61.69 92.3725L62.0402 92.1407L62.0475 92.1433L62.0495 92.1418L62.2152 92.2006L62.242 92.187L62.3758 92.1402L62.4825 92.118L62.5116 92.0995L62.5653 92.0687L62.6427 92.0318L62.8706 91.954L62.8878 91.9442L62.9656 91.9002L63.0393 91.8593L63.1092 91.8213L63.1764 91.7857L63.2414 91.7527L63.3045 91.7219L63.8626 91.4656L63.894 91.5004L64.0495 91.4386L64.3953 91.2666L64.5317 91.2332L64.5785 91.2214L64.6187 91.2111L64.6513 91.2023L64.6705 91.197L64.6826 91.191L64.7159 91.1745L64.7539 91.1556L64.7726 91.1335L64.8631 91.043L64.9688 90.9576L65.0933 90.8791L65.1805 90.8403L65.2434 90.6654L65.6065 90.609L65.6254 90.595L65.7248 90.5242L65.8164 90.4608L65.9015 90.4042L65.9825 90.3531L66.0643 90.3056L66.1562 90.2588L66.2465 90.2229L66.3739 90.1825L66.3825 90.1741L66.4306 90.1263L66.4874 90.0682L66.5899 89.9619L66.696 89.8791L66.7547 89.8329L66.7903 89.8046L66.8053 89.762L66.9207 89.5116L66.9218 89.5082L66.9252 89.4987L66.9299 89.4849L66.941 89.4513L66.9484 89.4283L66.9572 89.4006L66.9671 89.3689L66.9733 89.35L66.9772 89.3344L66.9853 89.3044L66.993 89.2755L67 89.2501L67.0061 89.2283L67.0127 89.2055L67.0208 89.1792L67.0346 89.139L67.2509 88.6253L67.2764 88.5538L67.3071 88.4687L67.3365 88.3884L67.3642 88.313L67.3906 88.2417L67.4159 88.1746L67.4398 88.1116L67.4537 88.0756L67.5991 87.6096L67.2801 87.4694L67.8287 86.7604L67.843 86.741L67.8567 86.7214L67.8697 86.7012L67.8822 86.6811L67.8945 86.6599L67.8963 86.6565L68.1059 85.9845L68.1134 85.9493L68.1267 85.8876L68.1392 85.8311L68.1514 85.7799L68.1628 85.7329L68.1746 85.6877L68.1879 85.6408L68.2017 85.5993L68.2179 85.5548L68.2326 85.5161L68.2476 85.4772L68.2632 85.4389L68.2789 85.4011L68.2956 85.3621L68.3009 85.35L68.4641 84.6674L68.4686 84.639L68.4756 84.607L68.4812 84.5836L68.5897 84.1844L68.5965 84.1679L69.001 82.6839L69.0178 82.6422L68.9906 82.5641L68.9685 82.4337L68.9708 82.2833L69.0033 82.1515L69.0373 82.0665L69.0698 82.0041L69.1038 81.9484L69.1386 81.9007L69.1735 81.8576L69.2114 81.8162L69.2488 81.7795L69.303 81.7313L69.3764 81.6782L69.4454 81.6399L69.4927 81.6161L69.5385 81.5946L69.5886 81.5717L69.6447 81.5469L69.7074 81.5198L69.7536 81.5002L69.8145 81.4696L69.8919 81.4307L69.9642 81.3944L70.0304 81.3612L70.0919 81.3301L70.1488 81.3016L70.2005 81.2757L70.2461 81.2529L70.287 81.2322L70.3234 81.2141L70.3542 81.1985L70.3801 81.1858L70.4018 81.1748L70.4191 81.1663L70.4398 81.1562L70.4789 81.1385L70.5364 81.1171L70.5827 81.104L70.613 81.0962L70.6407 81.0899L70.6675 81.0838L70.6978 81.0777L70.7298 81.0714L70.7443 81.0686L70.7577 81.0655L70.7978 81.0571L70.8379 81.0492L70.8796 81.0417L70.9234 81.034L70.971 81.0262L71.0216 81.0181L71.6934 80.9159L71.7074 80.9572L71.9698 80.9185L72.1747 81.5327L72.1933 81.6L72.2088 81.6734L72.2194 81.7545L72.2232 81.8405L72.2183 81.9329L72.202 82.0309L72.1672 82.1506L72.1379 82.2081L72.1346 82.2148L72.1281 82.228L72.1179 82.2482L72.1053 82.2729L72.0912 82.3011L72.074 82.3353L72.0541 82.3752L72.0313 82.4203L72.0065 82.4694L71.9793 82.5237L71.9491 82.5835L71.9162 82.649L71.881 82.719L71.8433 82.7942L71.8044 82.8719L71.7967 82.8877L71.7889 82.905L71.7789 82.9275L71.7672 82.9554L71.7538 82.9883L71.7397 83.025L71.724 83.0661L71.7082 83.1084L71.6999 83.1321L71.6925 83.1552L71.6841 83.184L71.6752 83.2184L71.6658 83.2573L71.6563 83.3003L71.6465 83.3476L71.6363 83.4023L71.6337 83.4164L71.629 83.4382L71.6237 83.4616L71.6166 83.4889L71.6096 83.5131L71.6028 83.5349L71.5959 83.5556L71.5884 83.5772L71.5739 83.6152L71.5591 83.6537L71.5416 83.6979L71.5217 83.7483L71.4988 83.8049L71.4734 83.8676L71.4453 83.9365L71.4068 84.0309L71.381 84.0842L71.3559 84.1321L71.3292 84.1796L71.3005 84.2292L71.2686 84.2825L71.234 84.3392L71.2331 84.3406L71.2366 84.3803V84.4574L71.2279 84.526L71.2175 84.5801L71.2041 84.6288L71.1868 84.6815L71.1643 84.733L71.1466 84.7686L71.1307 84.7981L71.1135 84.8283L71.0962 84.857L71.0788 84.8854L71.0594 84.9157L71.0401 84.9458L70.9484 85.0867L70.9771 85.308L70.9393 85.4562L70.9298 85.4915L70.9188 85.5293L70.907 85.5695L70.8934 85.6137L70.8786 85.6614L70.8624 85.7121L70.8445 85.7678L70.8248 85.8279L70.804 85.8919L70.781 85.9607L70.7567 86.0337L70.7306 86.1113L70.703 86.1932L70.6736 86.2799L70.645 86.3639L70.5179 86.766L70.4639 86.8575L70.4512 86.8799L70.4379 86.9044L70.4238 86.9314L70.409 86.9603L70.3942 86.9905L70.3788 87.0233L70.3625 87.0589L70.346 87.0954L70.3296 87.1335L70.3125 87.1735L70.2954 87.2152L70.2779 87.259L70.2595 87.3062L70.269 87.3821L70.2704 87.4625L70.2639 87.5347L70.2524 87.6013L70.2373 87.6583L70.221 87.7085L70.2088 87.7389L70.2022 87.7555L70.1935 87.7752L70.1829 87.7991L70.1738 87.8176L70.1666 87.8321L70.1627 87.8399L70.153 87.8617L70.1369 87.8986L70.1229 87.931L70.1105 87.9599L70.1008 87.9827L70.094 87.999L70.0906 88.0078L70.0441 88.134L70.0043 88.2428L69.9703 88.3364L69.9421 88.4149L69.9201 88.4769L69.9107 88.5039L69.9123 88.5662L69.895 88.6468L69.8928 88.6564L69.8906 88.6661L69.8856 88.6885L69.8794 88.7101L69.8749 88.7258L69.8673 88.7498L69.858 88.7768L69.8448 88.8104L69.8332 88.8384L69.8204 88.8676L69.8055 88.9002L69.7894 88.9325L69.7732 88.9639L69.7553 88.9969L69.7475 89.0106L69.7403 89.0249L69.7284 89.0499L69.7158 89.0771L69.7028 89.1066L69.6899 89.1374L69.6769 89.1693L69.6639 89.2027L69.6498 89.2403L69.648 89.2452L69.6444 89.2552L69.6375 89.2752L69.628 89.3033L69.6164 89.3368L69.6032 89.3759L69.5879 89.4212L69.5704 89.4728L69.5509 89.5302L69.5299 89.5928L69.5068 89.6612L69.4817 89.7359L69.4547 89.8161L69.426 89.9017L69.3952 89.9933L69.3719 90.0628L69.2307 90.7223L69.2293 90.7569L69.2211 90.8177L69.2098 90.8731L69.1963 90.9213L69.1616 91.0262L69.1021 91.1198L68.9229 91.5954L68.8325 91.7971L68.7632 92.098L68.7553 92.1321L68.748 92.1622L68.9011 92.2011L68.5425 93.5874L68.1296 93.7225L68.1049 93.7311L68.095 93.7348L67.8037 93.948L67.4593 94.0815L66.8947 94.3305L66.8337 94.352L66.7838 94.3673L66.7325 94.3806L66.6781 94.3922L66.6234 94.4011L66.5686 94.4077L66.5119 94.4117L66.4588 94.4131L66.4308 94.4128L66.4083 94.4122L66.3909 94.4114L66.3855 94.4111L66.3687 94.4121L66.3443 94.4128L66.3185 94.4132L66.2774 94.4124L66.237 94.4105L66.1998 94.4076L66.1636 94.4041L66.1289 94.4L66.0958 94.3957L66.0616 94.3905L65.2959 94.2653L65.4457 93.5545L65.4483 93.5429L65.4509 93.5311L65.453 93.5215L65.4565 93.5062L65.4614 93.488L65.4713 93.4511L65.4869 93.4098L65.5078 93.3591L65.5365 93.3022L65.5631 93.254L65.5908 93.2073L65.6203 93.1588L65.6532 93.1075L65.6887 93.0529L65.7222 93.0027L65.7318 92.9875L65.7399 92.9739L65.7477 92.9597L65.7552 92.9454L65.7624 92.9304L65.7695 92.9143L65.7763 92.8976L65.7806 92.8867L65.7832 92.8784L65.7884 92.8587L65.7962 92.8249L65.8054 92.7796L65.8154 92.7231L65.8262 92.6563L65.8373 92.5808L65.8413 92.5508L65.7959 92.5779L65.693 92.6215L65.588 92.666L65.5377 92.6877L65.4894 92.7081L65.4441 92.7275L65.4005 92.746L65.3581 92.7642L65.3095 92.7849L65.245 92.8124L65.2107 92.8272L65.1784 92.8411L65.1226 92.8649L65.0558 92.8939L65.0112 92.9072L64.8823 93.0503L64.6264 93.1173L64.5929 93.1265L64.5628 93.1353L64.5361 93.1433L64.5127 93.1507L64.494 93.157L64.4865 93.1598L64.4286 93.1873L64.3646 93.218L64.2825 93.2573L64.1834 93.3047L64.0667 93.3606L63.9008 93.4402L63.1886 93.7027L63.0916 93.7423L62.9871 93.784L62.8894 93.8209L62.8867 93.8219L62.8552 93.9965L62.3231 94.1106L62.279 94.1217L62.2332 94.1347L62.1865 94.1498L62.1388 94.1666L62.0907 94.1855L62.0418 94.2062L61.9905 94.2299L61.9833 94.2336L61.9781 94.2362L61.9703 94.2401L61.9674 94.2416L61.9655 94.2425L61.9641 94.2433L61.8833 94.2861L61.7953 94.3295L61.7059 94.3692L61.6133 94.4055L61.5158 94.4373L61.4111 94.464L61.2957 94.483L61.2585 94.4854L61.0078 94.5426L60.8459 94.7515L60.8045 94.7415L60.7944 94.7537L60.4608 94.6677L60.0172 94.769L58.9728 94.8316H58.8172L58.7181 94.8174L58.6632 94.8085L58.6083 94.7982L58.5532 94.7869L58.4974 94.7742L58.4417 94.7607L58.3856 94.746L58.3287 94.7303L58.2709 94.7132L58.2132 94.6953L58.1555 94.6766L58.0962 94.6567L58.0361 94.6356L57.9759 94.6139L57.9149 94.5908L57.8474 94.565L57.496 94.4189L57.37 94.2833L57.3535 94.2666L57.3317 94.2457L57.3042 94.2203L57.2719 94.1916L57.2352 94.1604L57.194 94.126L57.0829 94.0363L57.0088 93.9422L56.9746 93.8896L56.9492 93.8481L56.9212 93.8008L56.8889 93.7449L56.8516 93.6796L56.8152 93.6152L56.7996 93.6008L56.7536 93.5569L56.7095 93.5132L56.6669 93.4678L56.6206 93.4141L56.5621 93.334L56.4677 93.1549L56.4559 92.9961L56.4543 92.9606L56.4534 92.9254L56.4526 92.8841L56.4522 92.8356L56.4519 92.7804L56.4516 92.7167V92.6985L56.4441 92.6803L56.4284 92.6389L56.4118 92.5912L56.3956 92.5334L56.3789 92.4522L56.3705 92.3217L56.3724 92.3104L56.3536 91.966L56.3568 91.945L56.3471 91.9253L56.3092 91.7965L56.2954 91.6426L56.3106 91.5398L56.307 91.5014L56.3045 91.4423L56.3055 91.3788L56.3112 91.3074L56.3258 91.2262L56.352 91.1352L56.3947 91.0391L56.4014 91.0278L56.4009 91.0183L56.4136 90.9029L56.4899 90.6231L56.4914 90.6119L56.4987 90.557L56.5062 90.5057L56.5139 90.4567L56.5224 90.4089L56.5322 90.3607L56.5459 90.3055L56.5658 90.2411L56.587 90.1896L56.6052 90.1477L56.628 90.0967L56.6563 90.0339L56.6913 89.9566L56.7328 89.8655L56.781 89.7602L56.834 89.6449L56.8481 89.613L56.864 89.5776L56.879 89.5449L56.8938 89.5132L56.9081 89.4845L56.9231 89.4554L56.9401 89.4252L56.8723 89.3568L57.1395 88.8844L57.1563 88.8529L57.1747 88.8174L57.1938 88.7781L57.2143 88.735L57.2355 88.6885L57.2577 88.6379L57.2875 88.5684L57.313 88.5142L57.3443 88.456L57.3779 88.401L57.4131 88.3489L57.4516 88.2972L57.492 88.2481L57.533 88.202L57.54 88.1946L57.5759 88.1485L57.2618 87.7958L57.9378 87.4654L57.9432 87.4361L57.9849 87.2999L58.0352 87.1754L58.1112 87.0249L58.1789 86.9383L58.2194 86.8962L58.2448 86.8708L58.271 86.8456L58.2768 86.8401L58.2822 86.8245L58.3025 86.7685L58.3397 86.6891L58.3838 86.6176L58.4215 86.5633L58.4589 86.5137L58.4978 86.4642L58.5405 86.4116L58.5874 86.3551L58.6067 86.3323L58.7211 86.152L58.8258 86.052L58.8623 86.0167L58.8952 85.9837L58.924 85.9542L58.9496 85.9271L58.9724 85.902L58.9773 85.8964L59.2937 85.3661L59.4951 85.1323L59.7439 84.7518L59.8094 84.6849L59.8263 84.6681L59.8436 84.6504L59.8605 84.6336L59.8779 84.616L59.8971 84.597L59.9167 84.5778L59.9251 84.5696L59.9272 84.5673L59.9363 84.5564L59.9497 84.5404L59.9663 84.5196L59.9864 84.4943L60.0092 84.4647L60.0346 84.4315L60.0618 84.3951L60.092 84.3545L60.1247 84.31L60.1596 84.2625L60.1961 84.2118L60.2353 84.1574L60.2769 84.0994L60.3294 84.0261L60.433 83.8928L60.5482 83.7435L60.8041 83.4675L61.0066 83.2219L61.0962 83.1181L61.4206 82.732L61.4056 82.6954L61.3437 82.0592L61.787 81.7988L61.8513 81.762L61.9161 81.7264L61.9807 81.6919L62.046 81.6579L62.1121 81.6247L62.179 81.5921L62.2458 81.5608L62.3129 81.5301L62.3814 81.5L62.4497 81.4709L62.5187 81.4426L62.5879 81.415L62.6579 81.3883L62.7284 81.3622L62.7918 81.3397L62.8617 81.3141L62.9361 81.2874L63.0083 81.2625L63.0776 81.2393L63.145 81.2174L63.2115 81.1969L63.2758 81.1781L63.3379 81.1608L63.3986 81.1451L63.4592 81.1307L63.5203 81.1175L63.5808 81.1062L63.6415 81.0966L63.7048 81.0889L63.7707 81.0837L63.8294 81.0821H63.8522L63.8688 81.0825L63.8769 81.0822L63.8938 81.0821H63.9232L63.9882 81.0855L64.0643 81.0966L64.1319 81.1122L64.191 81.1304L64.2464 81.1512L64.2956 81.1734L64.338 81.1948L64.8468 81.4809L64.682 82.0417L64.6542 82.1136L64.6242 82.178L64.5928 82.2373L64.56 82.2929L64.526 82.3464L64.4903 82.3989L64.4518 82.4527L64.4116 82.506L64.37 82.5596L64.3253 82.6148L64.2783 82.6716L64.2285 82.7297L64.1766 82.7893L64.1218 82.8508L64.0578 82.9214L63.4444 83.5503L63.3292 83.7128L63.3122 83.7528L63.2778 83.8198L63.2405 83.8812L63.2014 83.9379L63.1612 83.9899L63.1205 84.038L63.0779 84.0844L63.0308 84.1324L63.0124 84.1495L62.9971 84.1635L62.9817 84.1769L62.9674 84.1894L62.9599 84.1958L62.015 85.4583L62.0283 85.5955L61.5883 85.977L60.8237 87.0905L60.5264 87.5848L60.5113 87.6262L60.5083 87.6343L60.5071 87.6374L60.5051 87.6436L60.5009 87.6552L60.4982 87.6624L60.4976 87.6644L60.487 87.695L60.454 87.7688L60.4119 87.8422L60.3699 87.9017L60.3307 87.9512L60.2912 87.9956L60.2855 88.0015L59.4661 89.7142L59.4652 89.7161L59.4563 89.7366L59.4473 89.7559L59.4378 89.7765L59.3399 89.978L59.3384 90.2148L59.3377 90.2536L59.3358 90.294L59.3327 90.3368L59.3273 90.384L59.3191 90.4357L59.306 90.4953L59.2881 90.5546L59.2719 90.5971L59.2606 90.6239L59.2505 90.6468L59.2392 90.6702L59.2287 90.6919L59.2173 90.7145L59.2148 90.7194L59.0863 91.4662L59.086 91.4705L59.0847 91.4979L59.083 91.5163L59.2225 91.5501L59.236 92.125L59.2378 92.1641L59.2402 92.2006L59.2435 92.2341L59.2473 92.2641L59.2515 92.2917L59.2561 92.3163L59.2606 92.3365L59.2649 92.3528L59.2693 92.3671L59.2731 92.3782L59.2758 92.3847L59.2771 92.3863L59.2862 92.3966L59.3012 92.4119L59.322 92.4312L59.3483 92.4537L59.3807 92.4793L59.4186 92.5073L59.5653 92.6078L59.5966 92.6123L60.3503 92.4538L60.3577 92.7057H60.3682L60.3944 92.7063L60.4237 92.7076L60.4511 92.7094L60.4748 92.7115L60.4986 92.7134L60.5274 92.7159L60.5595 92.7189L60.5769 92.7207L60.7444 92.73Z"
                fill="#1F1A17"
              />
              <path
                fill-rule="evenodd"
                clip-rule="evenodd"
                d="M75.86 94.1514L75.8401 94.1521L75.8222 94.1528L75.8062 94.1532L75.7781 94.154L75.7306 94.1527L75.6836 94.1491L75.6696 94.1473H75.5428L75.5314 94.1479L75.5048 94.1491L75.4817 94.1502L75.4592 94.1513L75.4399 94.1521L75.4223 94.1528L75.4064 94.1532L75.3708 94.1542L75.2845 94.1501L75.1837 94.1343L75.0772 94.1043L74.9675 94.0568L74.8632 93.9917L74.7733 93.915L74.7002 93.8316L74.6188 93.7088L74.5709 93.5697L74.5518 93.4811L74.5395 93.4062L74.5295 93.3285L74.5203 93.2439L74.5118 93.149L74.5034 93.043L74.5013 93.0112L74.4881 92.9779L74.4704 92.9341L74.4492 92.8831L74.4143 92.8004L74.3873 92.7209L74.3673 92.6341L74.3652 92.6196L74.2679 92.6031L74.2637 91.9799L74.2638 91.9265L74.2644 91.8697L74.2653 91.8084L74.2666 91.7427L74.2683 91.6726L74.2706 91.5983L74.2729 91.5345V91.5322L74.2725 91.527L74.2693 91.5027L74.263 91.4651L74.2527 91.4153L74.2387 91.3541L74.2211 91.2838L74.1965 91.1919L74.1832 91.1376L74.1714 91.0699L74.1637 91.0013L74.161 90.9381L74.0984 90.4805L74.0863 90.3727L74.0831 90.3455L74.0801 90.3196L74.0772 90.2962L74.073 90.2633L74.0613 90.1934L74.0563 90.1711L74.0471 90.1267L74.0384 90.0828L74.0308 90.0389L74.024 89.9952L74.0181 89.9517L74.0144 89.9187L73.9817 89.7695L73.9862 89.7016L73.9259 89.26L73.9165 89.2374L73.8917 89.1266L73.88 88.9256L73.837 88.6109L73.74 88.8246L73.6593 89.0615L73.6273 89.1325L73.5882 89.2003L73.5494 89.2555L73.5115 89.3029L73.5033 89.3119L73.4913 89.3393L73.3796 89.8233L73.2901 89.8543L73.2908 89.8903L73.243 90.0167L73.2399 90.0259L73.2265 90.0596L73.2127 90.0911L73.1988 90.1212L73.1843 90.151L73.1699 90.1791L73.1553 90.2071L73.1392 90.2369L73.1219 90.2685L73.1115 90.287L73.1066 90.2963L73.1005 90.3082L73.0939 90.3225L73.0864 90.3396L73.0786 90.3583L73.0701 90.3794L73.0604 90.4051L73.0562 90.4166L73.0522 90.4281L73.0483 90.4394L73.0397 90.4661L73.0362 90.4775L73.0326 90.4898L73.0239 90.5201L73.0039 90.5802L72.9895 90.6228L72.9762 90.6617L72.9635 90.6993L72.9518 90.7328L72.941 90.7641L72.9309 90.792L72.9172 90.8305L72.8976 90.8771L72.8762 90.9225L72.8547 90.9651L72.8318 91.0091L72.8057 91.0573L72.7773 91.1091L72.7458 91.1659L72.7125 91.2254L72.6889 91.2682L72.6681 91.3084L72.648 91.3486L72.6286 91.3897L72.6095 91.4323L72.5915 91.4745L72.5746 91.5168L72.5596 91.5566L72.5538 91.5731L72.551 91.5833L72.5491 91.5916L72.5477 91.5994L72.5468 91.6056L72.5465 91.6104L72.5464 91.6145L72.558 91.9075L72.3919 92.0906L72.4301 92.1524L72.2468 92.4425L72.245 92.4852L72.2449 92.4906V92.6407L72.2055 92.7193L72.3721 92.783L71.9049 93.5096L71.8905 93.533L71.8788 93.5521L71.8774 93.5545L71.875 93.5617L71.8725 93.5706L71.8696 93.5808L71.784 93.8918L71.5726 93.996L71.5566 94.0234L71.5244 94.072L71.4892 94.1161L71.4536 94.1567L71.4138 94.1951L71.3204 94.2769L71.1892 94.3406L71.1195 94.3672L71.062 94.3866L71.0008 94.4061L70.9307 94.4273L70.8508 94.4507L70.7596 94.4769L70.7181 94.4887L70.4729 94.6034L70.3099 94.6518L70.2151 94.6797L70.1351 94.7034L70.0675 94.7234L70.0143 94.7389L69.9738 94.7507L69.9383 94.7607L69.7928 94.7979L69.619 94.7821L69.5536 94.7977L69.3794 94.7812L69.2969 94.7638L69.2407 94.7466L69.1994 94.7318L69.1643 94.7171L69.1357 94.7044L69.1072 94.6906L68.5539 94.4072L68.7359 93.8712L68.749 93.8164L68.7554 93.7982L68.7635 93.7696L68.793 93.7041L68.8155 93.6614L68.8161 93.6604L68.8284 93.6373L68.8398 93.6216L69.475 92.5379L70.7722 89.712L70.7826 89.6809L70.7937 89.6479L70.8042 89.6171L70.8147 89.5865L70.8258 89.5549L70.8365 89.5245L70.8472 89.4949L70.8593 89.4613L70.873 89.4252L70.8874 89.3883L70.9021 89.3522L70.9174 89.3156L70.9333 89.279L70.9494 89.2423L70.9686 89.2008L71.0113 89.1126L71.0457 89.0412L71.0754 88.9792L71.0997 88.9277L71.1186 88.8872L71.1273 88.8683L71.1305 88.8535L71.1341 88.8355L71.2241 88.369L71.3272 88.3452L71.3496 88.0156L71.5286 87.9411L71.616 87.6236H71.2779L71.9586 86.5168L71.993 86.4603L72.0219 86.4121L72.045 86.3728L72.0503 86.3632L72.0538 86.3468L72.0675 86.2812L72.1384 86.0628L72.1542 86.0093L72.1725 85.9483L72.1905 85.8893L72.2081 85.8329L72.2254 85.7781L72.2429 85.7253L72.2602 85.6738L72.2805 85.6163L72.3092 85.5436L72.3479 85.4628L72.3929 85.3831L72.4046 85.3655L72.4067 85.2832L72.4181 85.1813L72.4393 85.0776L72.469 84.9811L72.4953 84.9145L72.5236 84.8548L72.5275 84.8475L72.527 84.8339L72.5384 84.7235L72.5642 84.6256L72.5875 84.5648L72.6046 84.5266L72.6208 84.4937L72.6255 84.4849L72.7627 84.0023L72.7944 83.931L72.8067 83.9021L72.8224 83.8631L72.8415 83.8146L72.863 83.758L72.8872 83.6933L72.9137 83.6205L72.973 83.4567L72.9779 83.4493L72.7807 83.2465L73.0036 82.782L73.0414 82.7178L73.0805 82.6604L73.121 82.6083L73.1627 82.5601L73.2067 82.5145L73.2517 82.472L73.2891 82.4397L73.3656 82.3745L73.4518 82.3063L73.54 82.2411L73.6306 82.1792L73.7229 82.1202L73.8177 82.0644L73.9142 82.0118L74.0126 81.9624L74.118 81.9136L74.1992 81.8746L74.2706 81.8388L74.3316 81.8069L74.3811 81.7792L74.4193 81.7564L74.4447 81.7397L74.6715 81.575H75.8954L76.1214 82.0744L76.1576 82.1604L76.1898 82.2443L76.2189 82.3284L76.2437 82.4126L76.2645 82.499L76.2805 82.5918L76.2855 82.6498L76.3585 82.7419L76.3799 83.0091L76.3704 83.1069L76.3601 83.1621L76.3507 83.2051L76.3404 83.2471L76.3291 83.2893L76.3246 83.3048L76.3238 83.3229L76.3209 83.368L76.3181 83.411L76.3153 83.4523L76.3124 83.491L76.3117 83.4997L76.4211 83.6641L76.3219 83.9849L76.3173 84.0009L76.3131 84.0156L76.3101 84.0271L76.3105 84.2036L76.3127 84.2146L76.321 84.2755L76.3262 84.3421L76.3261 84.4143L76.322 84.4613L76.4266 84.5244L76.3316 85.0057L76.3297 85.0173L76.3282 85.0276L76.3272 85.0383L76.3265 85.048L76.3261 85.0562L76.3259 85.0641L76.3269 85.109L76.3242 85.1525L76.3225 85.172L76.3307 85.1886L76.3663 85.2879L76.3829 85.3681L76.5341 85.4036L76.5158 85.9608V85.9624L76.5156 85.9702V85.9759L76.5155 85.987V86.0012L76.5146 86.0539L76.5031 86.1313L76.4927 86.1758L76.484 86.208L76.4772 86.2298L76.5179 86.5058L76.5182 86.5096L76.5208 86.5276L76.5269 86.574L76.5319 86.6198L76.5362 86.6652L76.5394 86.711L76.5414 86.7567L76.5422 86.803V86.8056L76.6712 88.3871L76.9329 90.0899L76.9433 90.0791L76.9804 90.0403L77.0073 90.0118L77.0223 89.9959L77.0709 89.9428L77.1507 89.8811L77.1982 89.8494L77.2396 89.8236L77.2739 89.5934L77.4554 89.4211L77.4686 89.4091L77.4812 89.3975L77.4985 89.382L77.5201 89.3619L77.5491 89.3353L77.5824 89.3045L77.6165 89.273L77.6191 89.2701L77.6263 89.2616L77.6371 89.2485L77.6524 89.2294L77.67 89.2068L77.9458 88.8446L77.9918 88.8502L78.0032 88.8266L78.0291 88.7777L78.059 88.7274L78.0936 88.6751L78.1207 88.639L78.6635 87.9171L78.698 87.8614L78.7457 87.7851L78.7896 87.7162L78.8297 87.6551L78.8671 87.5996L78.9047 87.5469L78.949 87.4894L78.9993 87.4334L79.0534 87.3816L79.1045 87.3379L79.1232 87.3234L79.132 87.2958L79.1645 87.2212L79.1975 87.1622L79.2248 87.1182L79.251 87.0792L79.2777 87.0408L79.307 87.0001L79.3384 86.9577L79.3726 86.9123L79.4098 86.8636L79.4502 86.8115L79.4941 86.7556L79.5412 86.6962L79.5914 86.6332L79.6454 86.5661L79.7029 86.495L79.7426 86.4462L80.0139 86.0401L80.1146 85.9223L80.1794 85.8464L80.2355 85.7805L80.2822 85.7255L80.3199 85.681L80.3484 85.6469L80.3669 85.6245L80.4063 85.5765L80.4927 85.4941L80.5188 85.4752L80.5543 85.3364L80.7024 85.0865L80.7685 84.8719L81.7962 83.8708L81.7963 83.8706L81.8211 83.8204L81.8442 83.7752L81.867 83.732L81.8917 83.6885L81.9253 83.634L81.9634 83.5831L81.7213 82.9066L82.0094 82.5609L82.0449 82.5185L82.0749 82.4823L82.0988 82.4534L82.1173 82.4309L82.1305 82.4149L82.1408 82.4026L82.2218 82.3062L82.3615 82.2217L82.4099 82.1991L82.4352 82.1877L82.4603 82.1771L82.4834 82.1676L82.5108 82.1565L82.5351 82.1469L82.8039 82.0077L83.0335 81.9296L83.068 81.9132L83.1391 81.8798L83.2056 81.8494L83.2676 81.8221L83.3269 81.7968L83.3859 81.7732L83.4453 81.7513L83.5031 81.7328L83.5538 81.7184L83.6057 81.7058L83.6569 81.6945L83.7106 81.6834L83.7681 81.6719L83.8316 81.6595L83.901 81.6464L84.2751 81.5771L84.4197 81.6706L84.4827 81.6587L84.554 81.6457L85.657 81.447L85.4747 82.4911L85.4607 82.5623L85.4455 82.6327L85.4288 82.7031L85.4105 82.7726L85.3906 82.8409L85.3689 82.9083L85.3643 82.9214L85.3366 83.0611L85.3065 83.1622L85.26 83.3702L85.0874 83.7657L85.0126 83.9683L84.8631 84.343L84.8801 84.4417L84.7172 84.7561L84.6763 84.9843L84.6412 85.0775L84.6278 85.1131L84.6148 85.1464L84.6018 85.1795L84.5897 85.2088L84.5775 85.238L84.5633 85.2694L84.5617 85.2727L84.5545 85.2898L84.542 85.3207L84.531 85.3472L84.5211 85.3721L84.5124 85.3935L84.5068 85.4081L84.5059 85.4111L84.4991 85.4369L84.4902 85.4703L84.4798 85.51L84.4596 85.5869L84.2473 86.6566L84.1512 86.7989L84.1382 86.8192L84.1264 86.8396L84.1147 86.8614L84.1032 86.8841L84.0924 86.9077L84.0817 86.933L84.0713 86.9603L84.0683 86.9686L84.063 86.9855L84.055 87.0133L84.0452 87.0489L84.0343 87.0911L84.0224 87.1393L84.0094 87.1945L83.9878 87.2904L83.5973 88.4556L83.5939 88.4652L83.5929 88.4682L83.591 88.4751L83.5885 88.4843L83.5858 88.495L83.5825 88.5083L83.577 88.5329L83.5712 88.5557L83.5665 88.5757L83.5614 88.5951L83.5564 88.615L83.551 88.6346L83.5463 88.6525L83.5412 88.6709L83.5399 88.6751L83.1072 90.4522L83.0374 90.6242L83.1076 90.6947L82.9741 91.1107L82.9635 91.143L82.9533 91.1741L82.9429 91.2054L82.9324 91.2363L82.922 91.2662L82.9118 91.2951L82.9002 91.3269L82.8921 91.3484L82.8841 91.3686L82.8758 91.3885L82.867 91.409L82.8577 91.4303L82.8481 91.4512L82.8391 91.4703L82.8235 91.5026L82.8142 91.5193L82.8833 92.1064L82.6101 92.1525L82.5983 92.2417L82.5839 92.3093L82.5823 92.3166L82.606 92.4543L82.5895 92.5733L82.5858 92.6012L82.5804 92.6401L82.5739 92.6903L82.5657 92.7516L82.5562 92.8226L82.5451 92.9042L82.5239 93.0599L82.4916 93.1543L82.4812 93.1857L82.4711 93.2169L82.4611 93.2492L82.4512 93.2814L82.4418 93.3139L82.4333 93.3439L82.3515 93.9016H82.308L82.3061 93.9111L82.0505 94.0928L82.0156 94.1183L81.9737 94.1488L81.9266 94.1834L81.8744 94.2219L81.7551 94.3103L81.648 94.3903L81.5381 94.451L81.4649 94.4893L81.3911 94.5255L81.3167 94.5599L81.2423 94.5917L81.168 94.621L81.0923 94.6482L81.0155 94.6732L80.9381 94.6952L80.8602 94.7145L80.7816 94.731L80.7021 94.7444L80.6218 94.7544L80.5407 94.7611L80.5118 94.7622L80.5002 94.7664L80.4601 94.7796L80.4178 94.7921L80.3738 94.8031L80.3272 94.8132L80.2816 94.8207L80.2368 94.8264L80.1872 94.8304L80.1165 94.8325L80.0223 94.8253L79.9254 94.8063L79.8864 94.7938L79.8547 94.802L79.8081 94.8125L79.7619 94.8201L79.7166 94.8262L79.6662 94.8304L79.5942 94.8325L79.4975 94.8251L79.3987 94.8051L79.3171 94.7782L79.2461 94.7482L79.1821 94.714L79.1293 94.6807L79.0791 94.6445L78.5643 94.2187L78.9522 93.6684L78.9771 93.631L79.0011 93.5933L79.0233 93.5563L79.0445 93.5188L79.0645 93.4808L79.0834 93.4428L79.1091 93.3873L79.1205 93.3644L79.1218 93.3457L79.1239 93.3151L79.1271 93.2818L79.1338 93.2291L79.1492 93.1602L79.1656 93.1105L79.1711 93.0962L79.1795 93.0738L79.1881 93.0549L79.192 93.0461L79.1998 93.0298L79.3096 92.7812L79.3089 92.7405L79.3162 92.653L79.3328 92.5645L79.355 92.4921L79.3722 92.4453L79.3876 92.4082L79.4041 92.3715L79.4205 92.3384L79.4365 92.3074L79.4547 92.2748L79.4736 92.2428L79.4889 92.2184L79.5502 92.1196L79.604 92.0332L79.6621 91.9394L79.6686 91.6029L79.7153 91.4749L79.8969 91.0276L79.9931 90.6141L79.994 90.6069L80.0005 90.5683L80.0071 90.5309L80.0145 90.495L80.0224 90.4593L80.0321 90.4207L80.0436 90.3805L80.0959 90.2229L80.1153 90.0952L80.1195 90.0659L80.1238 90.0339L80.1282 90.0002L80.1323 89.9643L80.1368 89.9243L80.1414 89.8828L80.1465 89.8339L80.153 89.7791L80.1649 89.711L80.1794 89.6454L80.1872 89.6153L80.0822 89.6628L80.0793 89.6679L80.0348 89.7431L79.9865 89.8224L79.9334 89.9068L79.7544 90.1844L79.6509 90.2256L79.6344 90.264L79.5639 90.3927L79.4807 90.5141L79.3869 90.6272L79.2835 90.731L79.1773 90.8217L79.1653 90.8447L79.1242 90.9058L79.0942 90.9435L79.069 90.9732L79.045 90.999L79.0241 91.0206L79.0025 91.042L78.9728 91.0707L78.969 91.074L78.9667 91.0765L78.9494 91.0959L78.9237 91.125L78.8929 91.1606L78.8565 91.2028L78.8057 91.2623L78.562 91.526L78.2446 91.9513L78.0747 92.1585L77.8944 92.3866L77.7161 92.5609L77.594 92.7074L77.5461 92.7556L77.5275 92.7757L77.5092 92.7967L77.4905 92.8196L77.4716 92.8441L77.4532 92.8697L77.4349 92.8968L77.3933 92.9623L77.3177 93.0597L77.2647 93.128L77.2137 93.1939L77.1643 93.2581L77.1168 93.3199L77.0715 93.3791L77.0283 93.4358L76.9866 93.4907L76.9468 93.5432L76.9094 93.593L76.8741 93.6403L76.8407 93.6853L76.809 93.7284L76.7797 93.7688L76.7527 93.8061L76.51 94.1473H75.9469L75.9342 94.1479L75.9068 94.1493L75.8831 94.1503L75.86 94.1514Z"
                fill="#1F1A17"
              />
              <path
                fill-rule="evenodd"
                clip-rule="evenodd"
                d="M54.4158 94.3547L54.3698 94.3634L54.3213 94.3721L54.2978 94.376L54.2832 94.379L54.2564 94.3856L54.2201 94.3953L54.1756 94.408L54.1237 94.4236L54.0647 94.4422L53.9944 94.4652L53.8485 94.512L53.8232 94.5257L53.787 94.5452L53.7548 94.5624L53.7267 94.5771L53.6996 94.5909L53.6496 94.615L53.3919 94.7105L53.2549 94.6768L53.1466 94.7134L52.808 94.6144L52.664 94.5236L52.5916 94.4606L52.5447 94.4133L52.5083 94.3718L52.4961 94.3569L52.1997 94.2056L52.1502 93.8258L52.1465 93.805L52.1394 93.7717L52.1289 93.7281L52.1151 93.6754L52.098 93.6154L52.0775 93.5474L52.0386 93.4255L52.0215 93.327L51.7845 92.5198L51.7524 92.4457L51.7213 92.3675L51.6909 92.2846L51.6602 92.1961L51.6291 92.1008L51.5917 91.9811L51.5658 91.872L51.5596 91.864L51.5234 91.8103L51.4873 91.7563L51.4454 91.6866L51.4072 91.6144L51.3723 91.5394L51.3421 91.4626L51.316 91.3846L51.2947 91.3054L51.2776 91.2244L51.2655 91.1419L51.2581 91.0603L51.2555 90.979L51.256 90.9579L51.2152 90.919L51.1292 90.8032L51.0691 90.6984L51.0221 90.5983L50.9829 90.4985L50.9628 90.4397L50.9444 90.4235L50.8686 90.3373L50.8047 90.2415L50.7694 90.1697L50.7531 90.1334L50.7437 90.1138L50.7343 90.0948L50.7238 90.0753L50.7125 90.0551L50.7009 90.0354L50.6894 90.0167L50.6599 89.9719L50.3897 89.4892L50.3602 89.4237L50.338 89.3649L50.3201 89.3102L50.3043 89.2564L50.2895 89.2015L50.2752 89.1452L50.2607 89.0852L50.2596 89.0805L50.0321 88.5494L50.0062 88.4822L49.9881 88.4393L49.9702 88.4003L49.9543 88.3686L49.9464 88.3712L49.8907 88.3896L49.8326 88.409L49.7727 88.4288L49.7323 88.4423L49.7319 88.4439L49.6765 88.5987L49.6701 88.6264L49.6571 88.6827L49.6462 88.7307L49.6373 88.769L49.6308 88.7982L49.626 88.8193L49.6225 88.8351L49.609 88.8929L49.5799 88.9651L49.5634 89.0012L49.5482 89.0326L49.5326 89.0632L49.5163 89.0945L49.4984 89.1282L49.479 89.1645L49.4574 89.2043L49.4524 89.2135L49.4516 89.2151L49.45 89.2182L49.4482 89.2221L49.4451 89.2294L49.4417 89.2378L49.438 89.2473L49.4336 89.2594L49.4256 89.2821L49.4171 89.3071L49.4089 89.3324L49.4009 89.3575L49.3931 89.3834L49.3852 89.4104L49.3774 89.4383L49.3662 89.4791L49.3524 89.5247L49.3369 89.5731L49.3186 89.6288L49.2969 89.6937L49.2717 89.7681L49.2427 89.8527L49.2101 89.9469L49.1998 89.9761L49.182 90.1528L48.9844 90.7046L48.9759 90.7377L48.9615 90.7926L48.9489 90.8406L48.9382 90.8807L48.9294 90.9137L48.9214 90.9432L48.9125 90.9744L48.8991 91.0155L48.8745 91.0771L48.8444 91.137L48.8141 91.1889L48.7829 91.2355L48.7524 91.277L48.722 91.3148L48.6915 91.3501L48.6793 91.3635L48.5608 91.8007L48.4962 91.8956L48.4957 91.9016L48.4932 91.9305L48.4924 91.9482L48.4866 91.9946L48.4804 92.0303L48.4731 92.0638L48.4651 92.094L48.4578 92.1189L48.4497 92.1441L48.4422 92.1654L48.4356 92.1835L48.4275 92.2046L48.4198 92.2241L48.4119 92.2438L48.4033 92.2653L48.3939 92.288L48.3836 92.3132L48.3794 92.3231L48.3769 92.3303L48.3723 92.3429L48.3633 92.3677L48.3587 92.3807L48.3536 92.395L48.3494 92.4067L48.3402 92.4328L48.3311 92.4588L48.3218 92.4864L48.3122 92.5146L48.3031 92.5425L48.2937 92.5713L48.2843 92.601L48.2749 92.6307L48.138 93.0804L48.0778 93.1712L47.9699 93.5037L47.9386 93.5793L47.9014 93.6506L47.8631 93.7138L47.823 93.7721L47.7823 93.8262L47.7404 93.8774L47.6975 93.9269L47.6505 93.9783L47.6057 94.0245L47.5475 94.0765L47.4883 94.123L47.4284 94.1646L47.3685 94.2018L47.3089 94.2352L47.2499 94.2653L47.1996 94.2889L47.1613 94.3067L47.1327 94.3204L47.1153 94.3289L47.1075 94.3364L47.098 94.3458L46.8183 94.633L46.5457 94.5915L46.5065 94.6171L46.3722 94.6892L46.2284 94.7491L46.0761 94.7944L45.9166 94.8231L45.7514 94.8331L45.6508 94.8268L45.5625 94.8122L45.5577 94.811L45.5439 94.8135L45.4696 94.8237L45.394 94.8297L45.3055 94.8322L45.2168 94.8269L45.1292 94.8125L45.0534 94.7933L44.983 94.7701L44.9213 94.7449L44.8661 94.7192L44.8129 94.6912L44.0333 94.2407L44.6522 93.5712L44.7277 93.4861L44.7973 93.4073L44.857 93.3393L44.906 93.2831L44.9447 93.2384L44.9539 93.2275L44.9686 93.1947L44.9877 93.1507L45.01 93.0987L45.0504 93.0023L45.1121 92.8922L45.1526 92.8189L45.1914 92.7487L45.2281 92.6815L45.2632 92.6169L45.2961 92.5556L45.327 92.4977L45.3559 92.4425L45.3821 92.3924L45.2976 91.8232L45.6302 91.7177L45.851 90.983L46.0165 90.8971L46.0233 90.8354L46.0351 90.7642L46.0505 90.6942L46.0687 90.6262L46.0892 90.56L46.1216 90.4673L46.519 89.6526L46.8223 88.829L46.9721 88.4056L46.9797 88.3708L46.9974 88.2951L47.0152 88.2233L47.0331 88.155L47.0516 88.0894L47.0705 88.027L47.09 87.9674L47.1096 87.9116L47.119 87.8868L47.1274 87.8652L47.1367 87.8418L47.146 87.8194L47.1554 87.7975L47.1653 87.7749L47.1753 87.753L47.1813 87.74L47.2214 87.6492L47.2587 87.5645L47.2907 87.492L47.3174 87.431L47.3388 87.3822L47.3538 87.3474L47.356 87.3422L47.3777 87.2535L47.4054 87.1399L47.4287 87.0441L47.4477 86.9656L47.4632 86.9016L47.4789 86.8363L47.4887 86.7944L47.5047 86.749L47.5145 86.7242L47.5209 86.7098L47.6897 86.3234L47.7067 86.2868L47.7186 86.2605L47.7296 86.2356L47.7397 86.2121L47.7485 86.1915L47.7558 86.1735L47.7625 86.1564L47.7681 86.1417L47.7831 86.1L47.7982 86.0561L47.8138 86.0091L47.8295 85.9595L47.8454 85.9075L47.8613 85.8534L47.8772 85.7974L47.951 85.5261L47.9784 85.5037V85.4418L47.9783 85.4364V85.4301L47.9779 85.4159L47.9787 85.3905L47.98 85.3536L47.9884 85.2918L48.0381 85.0692L48.2289 84.8802L48.6489 83.4364L48.6339 83.4158L48.5841 83.3241L48.5429 83.216L48.5199 83.098L48.5152 82.9823L48.5294 82.8652L48.5583 82.7637L48.5975 82.6706L48.6409 82.5894L48.6917 82.5122L48.7486 82.4409L48.8109 82.3754L48.876 82.3174L48.9437 82.2658L49.0165 82.2179L49.0769 82.1845L49.1365 82.1564L49.1995 82.1317L49.2629 82.1117L49.329 82.0953L49.3985 82.0834L49.4687 82.0762L49.5044 82.075L49.5152 82.0695L49.573 82.0409L49.6313 82.0135L49.6897 81.9876L49.7512 81.9617L49.8476 81.9245L49.9258 81.8948L49.9958 81.8688L50.059 81.8461L50.1174 81.8261L50.1775 81.8071L50.2622 81.7847L50.4104 81.7633L50.5824 81.7792L50.7329 81.7624L50.9535 81.7935L51.0288 81.8279L51.0436 81.8182L51.3631 81.8436L51.4197 81.8484L51.4724 81.8531L51.5201 81.8578L51.5642 81.8623L51.6056 81.8671L51.6456 81.8723L52.1609 81.8194H52.2218L52.2642 81.8211L52.3052 81.825L52.3249 81.8276L52.402 81.8194H52.4627L52.5096 81.8211L52.5532 81.8258L52.5825 81.8296L52.6052 81.8331L52.6238 81.8361L52.6451 81.8396L52.6656 81.843L52.6811 81.8456L52.6978 81.8481L52.7192 81.8507L52.7497 81.8539L52.7879 81.8575L52.8333 81.8612L52.8864 81.8649L52.946 81.8687L53.0115 81.8725L53.0834 81.8761L53.1622 81.8798L53.2465 81.8835L53.3362 81.8871L53.4318 81.8904L53.5337 81.8938L53.6416 81.8971L53.8042 81.9019L53.9684 81.9274L54.1768 81.8036L54.302 81.834L54.3536 81.8023L54.688 81.8832L54.7057 81.8868L54.7311 81.8913L54.7635 81.8962L54.8017 81.9009L54.8467 81.9058L54.8977 81.9104L54.9897 81.9176L55.312 81.9688L55.5807 82.0004L55.6781 82.0298H55.8629L56.1086 82.0716L56.177 82.0822L56.2649 82.0996L56.3521 82.1203L56.4388 82.1444L56.5254 82.1718L56.6118 82.2029L56.6977 82.2374L56.7944 82.2807L56.8915 82.3326L57.0024 82.4136L57.1066 82.5181L57.1437 82.5717L57.1707 82.5912L57.2293 82.6416L57.2808 82.6951L57.2974 82.7153L57.3455 82.7594L57.4146 82.8333L57.4822 82.9208L57.5448 83.0258L57.5985 83.1549L57.6308 83.3086V83.4786L57.5979 83.6175L57.5615 83.7151L57.5336 83.7836L57.5072 83.8449L57.5125 84.0391L57.4684 84.2159L57.4086 84.3364L57.357 84.4124L57.3158 84.4648L57.2773 84.5097L57.2384 84.5528L57.1971 84.5968L57.1525 84.6428L57.0982 84.6977L57.0386 84.7542L56.9775 84.8084L56.915 84.8601L56.8506 84.9096L56.7842 84.9565L56.7158 85.0007L56.6489 85.0398L56.6465 85.042L56.596 85.0864L56.5382 85.1273L56.4799 85.1685L56.3745 85.2434L56.2909 85.3029L56.1928 85.3726L56.0802 85.4527L55.918 85.5681L55.7985 85.6335L55.7282 85.6723L55.6687 85.7053L55.6199 85.7326L55.6096 85.7385L55.5002 85.8926L54.8298 86.2446L54.7233 86.2185L54.7057 86.2258L54.6759 86.237L54.671 86.2394L54.6634 86.2437L54.6527 86.2505L54.6385 86.2604L54.6218 86.273L54.5879 86.3008L54.5308 86.3462L54.48 86.3859L54.433 86.4218L54.3884 86.4551L54.3443 86.4868L54.3 86.5172L54.2501 86.549L54.1698 86.594L54.0851 86.6273L54.0245 86.6466L53.9733 86.6599L53.9293 86.67L53.8735 86.7078L53.4452 86.9015L53.3229 86.9291L53.2902 86.9377L53.2859 86.939L53.2333 86.9823L53.1739 87.0293L53.1145 87.0739L53.055 87.1164L52.9943 87.1571L52.9322 87.1958L52.8686 87.2322L52.786 87.2751L52.7107 87.3053L52.6515 87.3255L52.5961 87.3422L52.5418 87.3567L52.5364 87.358L52.6064 87.4777L52.6351 87.5286L52.6651 87.602L52.6837 87.659L52.6926 87.6928L52.7494 87.7525L52.8314 87.8549L52.8734 87.9322L52.8897 87.9657L52.9042 87.9972L52.9178 88.0291L52.9317 88.0629L52.9454 88.0989L52.9593 88.1368L52.9677 88.1616L52.9727 88.1744L52.9818 88.1982L52.9908 88.2216L52.999 88.2431L53.0072 88.2637L53.0153 88.2842L53.0237 88.3047L53.0393 88.3426L53.129 88.592L53.1483 88.6383L53.1658 88.6873L53.1795 88.7332L53.1898 88.773L53.2576 88.8794L53.295 89.0006L53.3077 89.0549L53.3178 89.1037L53.3278 89.1569L53.3389 89.2182L53.3512 89.2903L53.3646 89.3712L53.3732 89.426L53.3738 89.4277L53.3791 89.4429L53.3871 89.4644L53.3976 89.4911L53.4101 89.5216L53.4242 89.5553L53.4406 89.5927L53.4593 89.6348L53.4801 89.6804L53.5024 89.7285L53.5268 89.7798L53.5533 89.8354L53.5817 89.8937L53.6292 89.9908L53.7297 90.272L53.7448 90.3029L53.7743 90.3662L53.8013 90.4266L53.8258 90.4853L53.8491 90.5458L53.8709 90.6123L53.8928 90.697L53.9018 90.766L53.9078 90.8257L53.9119 90.8811L53.9146 90.9375L53.915 90.9949L53.9144 91.0131L53.9737 91.0725L54.0304 91.1376L54.0808 91.2039L54.1266 91.2713L54.1678 91.3402L54.2051 91.4096L54.2397 91.4817L54.2757 91.566L54.3042 91.6329L54.3312 91.6967L54.356 91.7558L54.3792 91.8109L54.401 91.8633L54.4211 91.9124L54.4389 91.9565L54.4556 91.998L54.471 92.0378L54.4855 92.076L54.4982 92.1117L54.5111 92.1494L54.5246 92.1945L54.5402 92.2575L54.5898 92.2873L54.7007 92.3796L54.7627 92.462L54.779 92.486L55.0993 92.3672L55.1362 92.4125L55.2973 92.3514L55.659 92.8553L55.7032 92.9354L55.7407 93.0251L55.7656 93.1209L55.7795 93.2214L55.778 93.3278L55.7629 93.429L55.7375 93.5157L55.7095 93.5859L55.6775 93.6489L55.6435 93.7043L55.6071 93.7554L55.5697 93.8009L55.5306 93.8431L55.4903 93.8818L55.4158 93.9463L55.3222 94.0023L55.2606 94.0315L55.2183 94.0497L55.1757 94.0675L55.1265 94.0874L55.0705 94.1097L55.0066 94.1349L54.9575 94.1541L54.6977 94.2758L54.6372 94.2984L54.5888 94.3136L54.5451 94.3256L54.5006 94.3366L54.4584 94.3458L54.4158 94.3547V94.3547ZM50.25 86.0372L50.2282 86.1035L50.2061 86.172L50.1842 86.2419L50.1561 86.3333L50.1498 86.3504L50.1653 86.3457L50.2897 86.3243L50.6533 86.1452L50.7267 86.1147L50.7764 86.0933L50.828 86.0705L50.8811 86.0464L50.9359 86.0208L50.9925 85.9937L51.0503 85.9653L51.1318 85.9241L52.6941 85.2433L52.8132 85.1981L52.9044 85.1629L52.9869 85.1304L53.0598 85.1009L53.1233 85.0744L53.1769 85.0512L53.2191 85.0322L53.2304 85.0268L53.2511 85.0139L53.281 84.9943L53.317 84.97L53.3588 84.9408L53.4061 84.9069L53.4584 84.8687L53.5523 84.7989L53.885 84.608L53.9131 84.588L53.9655 84.5509L54.0132 84.5172L54.0557 84.4876L54.094 84.4609L54.128 84.4376L54.1593 84.4164L54.2453 84.3601L54.3345 84.3243L54.3616 84.314L54.391 84.3032L54.4226 84.2921L54.4521 84.2819L54.4583 84.2765L54.497 84.2419L54.5433 84.1994L54.6609 84.0894L54.7631 84.0314L54.7633 84.0294L54.7697 83.9869L54.7785 83.9427L54.7793 83.9395L54.761 83.9322L54.7404 83.9245L54.7178 83.9166L54.6943 83.9089L54.6716 83.9019L54.6478 83.895L54.6202 83.8876L54.5672 83.8736L54.4831 83.8445L54.4783 83.8424L54.3918 83.8487L54.0455 83.7264H53.6511L53.5489 83.7181L53.4291 83.6913L53.3616 83.6664L53.3525 83.6671L53.2762 83.671L53.2068 83.6735L53.1915 83.6773L53.1488 83.688L53.1102 83.6975L53.0746 83.7057L53.0372 83.714L52.9844 83.7238L52.8491 83.7392L52.6919 83.7158L52.6068 83.6922L52.5509 83.6729L52.5026 83.6544L52.4555 83.6351L52.4072 83.6147L52.3641 83.596L52.3566 83.5981L52.3024 83.616L52.2347 83.6411L52.1548 83.673L52.0605 83.7132L52.0161 83.7326L51.9549 83.7566L51.8914 83.7784L51.824 83.7981L51.7545 83.8144L51.6798 83.8277L51.6012 83.8363L51.5221 83.8395L51.4586 83.8376L51.3917 83.8312L51.3145 83.8171L51.2143 83.7884L51.0972 83.734L51.0779 83.7205L51.0708 83.7382L51.0216 83.8618L50.9946 83.9209L50.9585 83.9843L50.926 84.0347L50.8938 84.0814L50.8601 84.1278L50.8398 84.155L50.8826 84.3428L50.7894 84.5958L50.7665 84.6581L50.7461 84.7135L50.7285 84.7613L50.6938 84.8555L50.6905 84.8671L50.6849 84.8865L50.6788 84.9066L50.6727 84.9263L50.6663 84.946L50.6596 84.9658L50.6486 84.9965L50.6269 85.0487L50.5982 85.1043L50.572 85.1483L50.5468 85.1868L50.5217 85.2221L50.4968 85.2549L50.4721 85.2854L50.4482 85.3139L50.4104 85.4099L50.4519 85.4722L50.3152 85.8484L50.2935 85.9098L50.2717 85.9728L50.25 86.0372V86.0372Z"
                fill="#1F1A17"
              />
              <path
                fill-rule="evenodd"
                clip-rule="evenodd"
                d="M86.6319 90.9443L86.6986 91.1925L86.5347 91.5031L86.5226 91.6175L86.6293 91.746L86.6898 91.9435L86.7038 92.0466L86.7082 92.1222L86.7088 92.1919L86.7078 92.2389L86.7524 92.287L86.7902 92.3269L86.7933 92.33L87.1483 92.4878V92.4879L87.4587 92.626L87.5596 92.7009L87.5614 92.7012L87.6017 92.7083L87.6413 92.716L87.6855 92.7257L87.7576 92.745L87.8299 92.7737L87.8741 92.7943L87.9075 92.8108L87.9417 92.8282L87.9796 92.8476L88.022 92.8697L88.0327 92.8752L88.1044 92.8902L88.1828 92.9066L88.2564 92.9218L88.3253 92.936L88.3895 92.949L88.4481 92.9606L88.5016 92.9712L88.5498 92.9803L88.5931 92.9884L88.6316 92.9954L88.6639 93.0012L88.6884 93.0053L88.7008 93.0072L89.001 93.0181L89.0414 93.0112L89.2267 92.9951L89.3339 93.0286L89.3411 93.0272L89.4064 93.0154L89.4765 93.0036L89.5515 92.9919L89.6319 92.9801L89.7173 92.9682L89.9201 92.9416L90.0277 92.9598L90.0596 92.9395L90.1315 92.9031L90.2122 92.8705L90.3022 92.8453L90.3972 92.8289L90.4809 92.8245L90.5317 92.8253L90.5706 92.8273L90.6094 92.8309L90.6112 92.8312L90.6569 92.818L90.7391 92.7943L90.8362 92.7658L91.0251 92.7102L91.1486 92.7004L91.3593 92.6155L91.4626 92.5867L91.5215 92.5701L91.5763 92.5546L91.627 92.54L91.6754 92.5259L91.7208 92.5124L91.7616 92.5001L91.798 92.489L91.8304 92.4788L91.8597 92.4693L91.8847 92.461L91.9039 92.4542L91.9177 92.4492L91.9243 92.4467L91.9428 92.4374L91.9704 92.4233L92.0041 92.406L92.0435 92.3858L92.0899 92.3617L92.1424 92.3345L92.1843 92.3132L92.5414 92.105L93.5745 91.1762L93.5889 91.1514L93.6488 91.0702L93.706 91.0021L93.7657 90.9363L93.8318 90.8673L93.9049 90.7939L93.9626 90.7377L93.9675 90.7297L93.9734 90.7192L94.1676 90.355L94.2769 90.3455L94.2841 90.2644L94.3185 90.1364L94.371 90.0274L94.4171 89.9581L94.4512 89.913L94.4816 89.8765L94.5103 89.8432L94.5407 89.8094L94.5731 89.7743L94.5749 89.7722L94.5803 89.7637L94.595 89.7391L94.6132 89.7068L94.6352 89.6659L94.6599 89.6184L94.7094 89.5195L94.7963 89.3917L94.8494 89.3134L94.8944 89.2456L94.9314 89.1894L94.9592 89.1455L94.9769 89.1167L94.981 89.1066L95.0002 89.06L95.0146 89.0255L95.0111 88.9603L95.0255 88.8733L95.0271 88.8632L95.0289 88.8489L95.0309 88.8308L95.0328 88.81L95.0349 88.7851L95.0368 88.7573L95.0387 88.7277L95.0403 88.6947L95.0418 88.6585L95.0431 88.6198L95.0444 88.5787L95.0453 88.5353L95.0462 88.4892L95.0467 88.4514L95.0189 88.3006L94.124 87.9431L94.0754 87.96L93.7438 87.8767L93.4565 87.8658H93.4514L93.4344 87.8656L93.4171 87.8653L93.3999 87.8648L93.3947 87.8647L93.3831 87.866L93.3477 87.8704L93.3157 87.8742L93.2873 87.8773L93.2589 87.8803L93.227 87.8829L93.1592 87.8866L93.0559 87.8788L92.9554 87.8589L92.9141 87.8451L92.8381 87.8422L92.8331 87.8434L92.7715 87.8541L92.7138 87.861L92.6584 87.8647L92.607 87.866L92.5695 87.8653L92.5369 87.8644L92.5053 87.8626L92.4753 87.8608L92.4427 87.8582L92.4097 87.8553L92.3767 87.8521L92.3478 87.849L92.3203 87.8463L92.2973 87.844L92.2779 87.8422L92.2561 87.8404H91.0645L90.6047 87.7719L90.3584 87.8564L90.0998 87.7589L90.0886 87.7547L90.0694 87.7476L90.0433 87.7377L90.0079 87.724L89.967 87.7081L89.9524 87.7025L89.884 87.6922L89.8028 87.6777L89.7238 87.6613L89.6455 87.6417L89.5665 87.6183L89.483 87.5881L89.3773 87.5405L89.3398 87.5162L89.3297 87.515L89.3078 87.511H88.9985L88.7056 87.3365L88.6437 87.3049L88.562 87.2612L88.4856 87.2183L88.413 87.1753L88.3431 87.1305L88.2738 87.082L88.2009 87.0242L88.122 86.9497L88.034 86.8429L87.9643 86.7432L87.9026 86.6404L87.8479 86.535L87.7989 86.4265L87.755 86.3146L87.7155 86.1992L87.678 86.0731L87.6565 85.9826L87.6406 85.8946L87.6297 85.8044L87.6246 85.712L87.6261 85.6164L87.636 85.517L87.6556 85.4145L87.6823 85.3262L87.693 85.2972L87.6895 85.2725L87.6858 85.1676L87.6937 85.0602L87.7136 84.9538L87.7997 84.6703L87.9972 84.5227L88.1515 84.207L88.2586 84.0716L88.3145 84.0016L88.3649 83.9395L88.4096 83.8856L88.4507 83.8373L88.4921 83.791L88.5496 83.7321L88.5965 83.6939L88.9211 83.4362L88.947 83.4066L89.0021 83.3718L89.0184 83.3588L89.0653 83.3214L89.1119 83.2844L89.1582 83.2478L89.2044 83.2111L89.2508 83.1743L89.2968 83.1376L89.3878 83.0652L89.7535 82.8579L90.2146 82.5697L90.4999 82.4559L90.7674 82.3392L91.9018 81.9217L91.9773 81.8895L92.065 81.8526L92.1463 81.8191L92.2205 81.7894L92.2891 81.7622L92.3535 81.7381L92.4137 81.7165L92.4712 81.6976L92.528 81.6803L92.5752 81.6664L92.6203 81.6531L92.6642 81.6402L92.707 81.6279L92.7494 81.6157L92.7911 81.6038L92.807 81.5994L92.809 81.5987L92.8846 81.5776L92.934 81.5642L92.9826 81.551L93.0294 81.5387L93.0745 81.5269L93.1188 81.5157L93.1608 81.5053L93.1989 81.4963L94.0943 81.2812L94.3896 81.2264L95.6078 81.117L96.1945 81.0636L96.2618 81.0663L96.2867 81.0681L96.3087 81.0696L96.3376 81.0718L96.3744 81.0745L96.4183 81.0779L96.4694 81.0818L96.5307 81.0866L96.7179 81.1018L97.1495 81.0636L97.2154 81.0663L97.24 81.068L97.2626 81.0696L97.2925 81.0718L97.3301 81.0744L97.3754 81.0778L97.4279 81.0816L97.4908 81.0864L97.8824 81.1177L98.0685 81.1677L98.107 81.1741L98.1516 81.1819L98.1961 81.1905L98.2414 81.1994L98.2877 81.2092L98.3353 81.2194L98.3842 81.2304L98.4338 81.2419L98.4859 81.2542L98.5381 81.2672L98.5915 81.2807L98.6463 81.2948L98.7027 81.3097L98.7604 81.3252L99.4203 81.5071L99.2582 82.6604L98.9078 82.8588L98.8634 82.8839L98.8229 82.9064L98.7848 82.9276L98.7495 82.9468L98.7179 82.9637L98.6902 82.9781L98.6805 82.9831L98.6633 82.9926L98.6381 83.0068L98.6162 83.0189L98.5951 83.031L98.5775 83.0407L98.5648 83.048L98.5537 83.0541L98.5442 83.0598L98.508 83.0803L98.4718 83.1007L98.4354 83.1209L98.3987 83.1406L98.3617 83.1596L98.3247 83.1778L98.286 83.1959L97.88 83.3729L97.6024 83.1908H97.4552L97.378 83.1624L97.3545 83.1744L97.316 83.1928L96.9014 83.3782L96.6242 83.1908H96.4853L96.1917 83.0796L96.0099 83.0896L95.6379 82.9998L95.5689 82.9665L95.537 82.9727L95.4988 82.9817L95.4597 82.9926L95.3843 83.0169L93.2372 83.5649L92.9912 83.6735L92.8759 83.7997L92.6297 83.8331L92.2417 84.0044L91.9163 84.277L91.7596 84.2176L91.7272 84.2318L90.9167 84.9475L90.9135 84.9929L91.1539 85.1566L91.4333 85.2644L91.5205 85.181L91.8871 85.338L92.1431 85.3069L92.5988 85.4074L92.6001 85.4073L92.6242 85.4045L92.6288 85.4039L92.65 85.4011L92.6705 85.3985L92.6913 85.3965L92.7158 85.3943L92.742 85.3928L92.7676 85.3917L92.8033 85.3914L92.8714 85.3935L92.9438 85.3996L93.0121 85.4082L93.0789 85.4191L93.1456 85.4315L93.2128 85.4458L93.2731 85.4596L94.0339 85.4914H95.6661L95.7091 85.5593H96.1312L96.2669 85.6012L96.2903 85.6085L96.3044 85.6129L96.3367 85.617L96.44 85.6325L96.5379 85.6494L96.6317 85.6689L96.7239 85.6919L96.8201 85.7216L96.9262 85.7635L97.0082 85.8075L97.1551 85.8949L97.8358 86.1346L97.929 86.1813L97.9978 86.2287L98.0376 86.2602L98.0673 86.2858L98.0933 86.3095L98.1184 86.3335L98.1363 86.3513L98.1503 86.3625L98.1563 86.3673L98.1693 86.3755L98.2456 86.4294L98.3088 86.4762L98.3699 86.5245L98.4307 86.5766L98.4926 86.6358L98.5586 86.709L98.6292 86.8071L98.6594 86.8671L98.6812 86.9078L98.7141 86.9952L98.7321 87.0648L98.7437 87.1253L98.7489 87.1679L98.8063 87.4318L98.8175 87.4843L98.8291 87.5517L98.8373 87.6188L98.8428 87.6869L98.8449 87.7547L98.8442 87.8212L98.8408 87.8875L98.8344 87.9571L98.8255 88.0189L98.8155 88.0767L98.803 88.1356L98.7884 88.1941L98.7718 88.252L98.7536 88.3083L98.7443 88.3349L98.7401 88.3639L98.7259 88.4591L98.7119 88.5462L98.6981 88.6268L98.6835 88.7015L98.6682 88.7722L98.6499 88.8428L98.6297 88.907L98.553 89.1151L98.5231 89.1959L98.5076 89.2385L98.4933 89.2771L98.4804 89.3117L98.469 89.3428L98.4591 89.3697L98.4448 89.4082L98.4385 89.426L98.4333 89.4398L98.4294 89.4505L98.4262 89.4589L98.4227 89.4688L98.4183 89.4805L98.4152 89.4891L98.4129 89.495L98.404 89.5205L98.3718 89.5942L98.3319 89.668L98.2909 89.7331L98.2484 89.7936L98.2042 89.8509L98.1852 89.8739L98.1716 90.1119L97.9293 90.305L97.8739 90.4261L97.7351 90.5931L97.6601 90.6821L97.591 90.7624L97.5273 90.8347L97.468 90.8994L97.4438 90.9247L97.3702 91.1054L97.1551 91.3055L97.1628 91.4727L96.848 91.7345L96.8033 91.772L96.7648 91.805L96.7324 91.8334L96.7074 91.8558L96.6913 91.8709L96.6853 91.8766L96.6594 91.9044L96.5887 91.9696L96.5313 92.0213L96.472 92.0729L96.4109 92.1252L96.3475 92.178L96.2828 92.2311L96.2157 92.285L96.1711 92.3201L95.812 92.6538L95.5845 92.8012L95.2445 93.0527L95.1682 93.1073L95.1037 93.1539L95.046 93.1959L94.9942 93.2343L94.9494 93.2677L94.912 93.2962L94.8823 93.3195L94.8592 93.3381L94.8307 93.3618L94.7796 93.3999L94.7248 93.4354L94.6602 93.4718L94.5816 93.5071L94.4936 93.5368L94.3877 93.5599L94.3796 93.5606L94.304 93.6524L94.1165 93.7493L94.0572 93.7796L93.9962 93.8097L93.9339 93.84L93.8703 93.8702L93.8055 93.9005L93.7396 93.9308L93.6721 93.9612L93.6032 93.9916L93.5335 94.022L93.462 94.0525L93.3893 94.0832L93.3151 94.114L93.2397 94.1449L93.1631 94.1757L93.0852 94.2068L93.0148 94.2343L92.948 94.2602L92.8846 94.2846L92.8234 94.3077L92.7647 94.3294L92.7087 94.3498L92.6555 94.3685L92.604 94.3866L92.5545 94.403L92.5081 94.4181L92.4625 94.4322L92.4171 94.4455L92.371 94.4578L92.3239 94.4692L92.275 94.4795L92.2189 94.4891L91.8299 94.5307L91.786 94.5391L91.7162 94.5523L91.65 94.5652L91.5861 94.578L91.5245 94.5903L91.4668 94.6022L91.4129 94.6134L91.3612 94.6247L91.3119 94.6353L91.2667 94.6456L91.2258 94.6551L91.1878 94.6642L91.1529 94.6729L91.1226 94.6808L91.0955 94.6881L91.0162 94.7107L90.5569 94.7744L90.3201 94.8124H90.0596L89.6726 94.8398L89.5758 94.8098L89.5603 94.8124H89.3052L88.9221 94.8404L88.8635 94.8216L88.8423 94.8246L88.7783 94.83L88.6708 94.8333L88.5437 94.8152L88.4478 94.7867L88.3877 94.7626L88.3334 94.7811L88.2535 94.8023L88.1711 94.8183L88.084 94.8286L87.9425 94.8344L87.7889 94.807L87.6846 94.7696L87.6227 94.7407L87.5764 94.7163L87.3206 94.719L87.2966 94.7188L87.2773 94.7184L87.2588 94.7177L87.2378 94.7171L87.2193 94.7163L87.2024 94.7156L87.1835 94.7148L87.0553 94.7105L87.0482 94.7082L86.9304 94.8415L86.375 94.518L86.357 94.5078L86.3371 94.4967L86.3165 94.4855L86.2966 94.4749L86.2762 94.4647L86.2618 94.4576L86.0791 94.4551L85.8787 94.3468L85.8497 94.3314L85.8256 94.3191L85.8077 94.3105L85.7883 94.3053L85.7554 94.2963L85.7221 94.2873L85.6884 94.2777L85.656 94.2684L85.6256 94.2594L84.8878 94.0386L84.9289 93.9236L84.6433 93.8093L84.114 93.211L83.6732 93.0436L83.7866 92.6216L83.767 92.5809L83.7452 92.5322L83.722 92.4785L83.6972 92.4184L83.6702 92.3512L83.635 92.2621L83.617 92.2081L83.608 92.1844L83.5995 92.1633L83.5917 92.1461L83.5852 92.1329L83.5793 92.1218L83.5749 92.1143L83.3302 91.7358L83.5907 91.3331L83.6352 91.2764L83.6735 91.231L83.7138 91.1855L83.7588 91.1355L83.8108 91.0788L83.8693 91.0158L83.9078 90.9747L84.0686 90.7602L84.2061 90.6447L84.2704 90.5906L84.3249 90.5443L84.3675 90.508L84.5426 90.1725L84.9251 90.1118L84.9421 90.1096L84.9587 90.1075L84.9681 90.1066L84.976 90.1056L84.9928 90.104L85.0017 90.1032L85.0124 90.1023L85.0271 90.1014L85.0353 90.1008L85.0482 90.1L85.061 90.0995L85.0738 90.0989L85.0914 90.0985L85.1046 90.0984H85.1236L85.1485 90.0988L85.1853 90.101L85.6258 90.1041L85.63 90.1037L85.6535 90.1019L85.6769 90.1003L85.7029 90.0992L85.7272 90.0985L85.7512 90.0984L85.7819 90.0986L85.8229 90.1011L85.8659 90.1056L85.8989 90.1108L85.9409 90.1184L85.9867 90.1303L86.0189 90.14L86.0754 90.1594L86.1321 90.1857L86.1754 90.2088L86.2237 90.2383L86.27 90.272L86.3211 90.3146L86.3639 90.3587L86.4006 90.4008L86.4336 90.4464L86.4606 90.4886L86.4821 90.5253L86.5014 90.5613L86.5191 90.5969L86.5347 90.631L86.5496 90.666L86.5624 90.6988L86.5829 90.7543L86.6012 90.8251L86.6097 90.8579L86.6169 90.8858L86.623 90.9095L86.6276 90.9279L86.6311 90.9409L86.6319 90.9443Z"
                fill="#1F1A17"
              />
              <path
                fill-rule="evenodd"
                clip-rule="evenodd"
                d="M27.3039 90.893L27.3381 90.835L27.3436 90.8257L27.5415 90.2728L27.5375 90.2233L28.3029 88.074L28.3111 88.0362L28.3208 87.9974L28.3315 87.959L28.343 87.9209L28.3555 87.8832L28.3753 87.8264L28.4816 87.5873L28.9288 86.3526L28.937 86.3295L28.9431 86.3109L28.9484 86.2939L28.9525 86.2799L28.9556 86.268L28.9575 86.2599L28.9582 86.2561L28.9653 86.2138L28.9794 86.1607L28.9853 86.1383L28.9906 86.119L28.9957 86.1001L29.0009 86.0816L29.0061 86.0636L29.0123 86.0436L29.0173 86.0282L29.4716 84.6946L29.4806 84.6677L29.4968 84.623L29.5718 84.4161L29.5957 84.3499L29.6181 84.2871L29.6394 84.2269L29.6597 84.1686L29.6788 84.1134L29.6966 84.0612L29.7134 84.0114L29.7289 83.9641L29.7436 83.9192L29.7569 83.8777L29.7688 83.8395L29.7795 83.8041L29.7894 83.7708L29.7979 83.7412L29.8052 83.7146L29.8146 83.6795L29.8263 83.6396L29.8361 83.606L29.8464 83.5721L29.8565 83.5396L29.8667 83.5079L29.8769 83.4773L29.8872 83.4474L29.9011 83.4081L29.9227 83.3551L29.9493 83.2991L29.9774 83.2473L30.0062 83.199L30.0334 83.1575L29.9889 82.9803L29.9887 82.7984L30.0243 82.603L30.2943 82.0502L30.7434 80.6545L31.2033 78.8009V78.7841L31.2269 78.7058L31.3284 78.2967L31.3317 78.2732L31.343 78.207L31.3563 78.141L31.3714 78.0751L31.3884 78.0096L31.4072 77.9444L31.4153 77.9189L30.7473 77.9269L30.6798 77.2477L30.6765 77.1874L30.6764 77.1269L30.6793 77.0642L30.6864 76.9992L30.6974 76.9345L30.7136 76.8669L30.7388 76.7876L30.7953 76.6605L30.8734 76.535L30.9657 76.4228L31.0676 76.3256L31.1759 76.2427L31.2882 76.1724L31.403 76.1133L31.521 76.0629L31.577 76.0433L31.592 76.0375L31.5979 76.0349L31.7643 75.8977L31.9424 75.8803L31.9566 75.8723L32.0019 75.8437L32.0596 75.8038L32.3335 75.6007H32.8906L32.9515 75.604L32.9858 75.606L33.0153 75.6075L33.0387 75.6087L33.0591 75.6095L33.0693 75.6099L33.5842 75.591L33.6486 75.5919L33.7065 75.599L33.7362 75.6037L33.7783 75.6061L33.8067 75.6076L33.8293 75.6087L33.8481 75.6095L33.8572 75.6099L34.395 75.5895L34.5209 75.6039L34.6183 75.6297L34.6848 75.6526L34.7391 75.6744L34.7595 75.6833L36.1168 75.6399L36.1474 75.6376L36.2256 75.6391L36.3007 75.6465L36.347 75.6554L36.826 75.6397L36.8871 75.6362L37.0027 75.6462L37.1042 75.6673L37.1921 75.6958L37.1956 75.6973L37.2001 75.6975L37.2037 75.6977L37.2196 75.6859L37.5358 75.687L37.6011 75.6879L37.6671 75.6893L37.7323 75.6913L37.7971 75.6937L37.8625 75.6968L37.928 75.7004L37.9926 75.7046L38.057 75.7091L38.1185 75.7141L38.1327 75.6991L38.5509 75.7279L38.6073 75.7315L38.6613 75.7344L38.7123 75.7368L38.7281 75.7374L38.7643 75.6979L39.189 75.7279L39.2435 75.7316L39.2953 75.7345L39.3446 75.7368L39.3915 75.7386L39.4364 75.74L39.4787 75.7407L39.5732 75.7413L40.812 75.9112L41.261 75.9217L41.4085 75.9602L41.46 75.9725L41.5093 75.9831L41.5557 75.9921L41.6001 75.9996L41.6429 76.0058L41.6837 76.0107L41.9079 76.0329L42.025 76.1056L42.0409 76.1102L42.0505 76.1132L42.1264 76.0918L42.2245 76.0741L42.3547 76.0666L42.478 76.0816L42.5516 76.1003L42.5905 76.112L42.6203 76.1218L42.6371 76.1274L42.8509 76.134L42.9561 76.1432L43.0837 76.1746L43.1881 76.2139L43.2744 76.256L43.3494 76.2992L43.4171 76.3435L43.4804 76.3891L43.4981 76.4028L43.6795 76.3538L44.5795 76.811L44.5854 76.8124L44.6774 76.8342L44.7646 76.8554L44.8465 76.8758L44.9241 76.8958L44.9972 76.9154L45.0662 76.9344L45.1309 76.9533L45.1922 76.9721L45.2514 76.9914L45.3098 77.0118L45.3668 77.0338L45.4274 77.0597L45.4969 77.0944L45.5851 77.1476L45.5996 77.1595L45.8017 77.1932L46.0038 77.3942L46.0354 77.4253L46.0648 77.4538L46.0904 77.4781L46.113 77.4991L46.1326 77.517L46.1476 77.5302L46.1996 77.5748L46.4712 77.876L46.7859 78.1298L46.8403 78.1863L46.8613 78.2078L46.8817 78.2283L46.9009 78.2473L46.9197 78.2656L46.9389 78.2839L46.9653 78.3087L46.9966 78.3365L47.0196 78.3563L47.0407 78.3737L47.0587 78.3882L47.0745 78.4L47.0883 78.4101L47.0987 78.4171L47.6764 78.7873L47.5184 79.0507L47.573 79.1271L47.6213 79.2275L47.6429 79.2696L47.6682 79.3159L47.6968 79.3657L47.729 79.4188L47.7655 79.4764L47.8058 79.5375L47.8627 79.6206L47.9103 79.6979L47.9517 79.7719L47.9905 79.8505L48.0265 79.9387L48.0592 80.048L48.0802 80.1949L48.0646 80.3973L48.0527 80.4253L48.0365 80.5682L48.0389 81.2773L47.8993 81.7311L47.8525 82.3127L47.6248 83.042L47.579 83.3697L47.2515 84.1521L47.228 84.2126L47.201 84.2808L47.1744 84.3469L47.148 84.4117L47.1219 84.4742L47.096 84.5354L47.0698 84.5959L47.0439 84.6539L47.0184 84.7105L46.9924 84.7662L46.9667 84.8197L46.9409 84.8721L46.9149 84.9233L46.8885 84.9736L46.8616 85.0228L46.8347 85.0701L46.8117 85.109L46.7889 85.1468L46.7651 85.1856L46.7403 85.225L46.7146 85.2656L46.6872 85.3082L46.6588 85.3516L46.6296 85.3958L46.5993 85.4411L46.5674 85.4882L46.3458 85.813L46.1681 86.1647L46.1378 86.2205L46.1046 86.277L46.0697 86.3328L46.0329 86.3882L45.9918 86.4468L45.9514 86.5002L45.9229 86.5381L45.8988 86.5702L45.879 86.5972L45.8641 86.6176L45.8552 86.63L45.8527 86.6337L45.8452 86.6452L45.7636 86.7647L45.6833 86.8747L45.6018 86.9769L45.515 87.0742L45.4151 87.1698L45.2852 87.2683L45.2809 87.2705L44.9024 87.758L44.838 87.8179L44.8179 87.8373L44.7941 87.8611L44.7672 87.8889L44.738 87.9197L44.7061 87.954L44.6719 87.9916L44.6354 88.0324L44.5968 88.076L44.5562 88.1228L44.5133 88.1728L44.4683 88.2258L44.4214 88.2816L44.3726 88.3402L44.322 88.4015L44.2338 88.5092L43.9199 88.7896L43.8274 88.9235L43.2511 89.3652L43.1381 89.5212L42.6902 89.8968L42.635 89.9429L42.579 89.988L42.5236 90.0306L42.4667 90.0715L42.4044 90.1125L42.3241 90.1582L42.1936 90.2147L42.1648 90.2204L41.8403 90.4137L41.8238 90.4254L41.7791 90.4566L41.7338 90.4876L41.6866 90.5191L41.639 90.5502L41.5913 90.5807L41.5427 90.6114L41.4926 90.6423L41.4422 90.6728L41.3906 90.7035L41.3385 90.7339L41.2859 90.7642L41.2325 90.7944L41.1779 90.8248L41.1224 90.8552L41.0721 90.8824L41.0257 90.9081L40.9856 90.9318L40.9479 90.9552L40.9127 90.9785L40.8797 91.0015L40.8495 91.024L40.821 91.0463L40.7038 91.1436L40.1287 91.3862L40.1232 91.3901L40.0798 91.4201L40.034 91.4509L39.9872 91.4816L39.9382 91.5132L39.8872 91.5455L39.8339 91.5788L39.7782 91.613L39.721 91.6476L39.6615 91.6833L39.5992 91.7202L39.5351 91.7579L39.4686 91.7965L39.4002 91.836L39.2958 91.8958L38.5341 92.2299L38.516 92.2409L38.4834 92.262L38.4396 92.2912L38.3869 92.3276L38.3255 92.3708L38.0603 92.5611L37.6882 92.5627L37.6674 92.5792L37.5644 92.6511L37.4555 92.6968L37.3994 92.716L37.3529 92.7303L37.3057 92.744L37.2549 92.7578L37.1994 92.7724L37.1376 92.7883L37.0689 92.8058L37.0338 92.8145L36.9979 92.8234L36.9601 92.8328L36.9201 92.8426L36.8784 92.8528L36.8354 92.8632L36.7991 92.872L36.7062 92.9316L36.6137 92.991L36.5338 93.0419L36.4658 93.0849L36.4077 93.1211L36.3545 93.1532L36.28 93.1947L36.0891 93.2731H35.9097L35.8679 93.2972L35.7899 93.3432L35.7291 93.3754L35.6572 93.4066L35.5919 93.4318L35.524 93.4561L35.4498 93.4811L35.3674 93.5076L35.2763 93.536L35.2041 93.5577L35.1945 93.5615L35.1749 93.5692L35.1534 93.5777L35.102 93.5982L35.0741 93.6092L35.0469 93.6201L34.9695 93.6513L34.8912 93.6826L34.8153 93.7123L34.7416 93.7406L34.6706 93.7673L34.602 93.7926L34.5357 93.8162L34.4711 93.8387L34.4086 93.8594L34.348 93.8787L34.2883 93.8966L34.2293 93.9133L34.1707 93.9284L34.112 93.9418L34.052 93.9538L33.9772 93.9659L33.9227 93.9705L33.9028 93.9725L33.8814 93.9751L33.8577 93.9784L33.8315 93.9824L33.8045 93.9869L33.7752 93.9923L33.7428 93.9986L33.7099 94.0055L33.6754 94.013L33.6387 94.0214L33.6005 94.0305L33.5613 94.0402L33.5205 94.0507L33.4779 94.062L33.444 94.0713L32.3854 94.4005L31.7454 94.4586L31.4989 94.5292L31.2791 94.5549L30.878 94.6085H30.7055L30.2989 94.698L29.7105 94.7192L28.9274 94.776L28.7258 94.7641L28.6836 94.763L28.6271 94.761L28.573 94.7584L28.5203 94.7554L28.4688 94.7516L28.4206 94.7473L28.4133 94.7466L27.9977 94.7759L27.7923 94.7642L27.7724 94.7636L27.1057 94.7891L27.0751 94.7976L27.0509 94.804L27.0184 94.8115L26.9802 94.8188L26.946 94.8238L26.9118 94.8278L26.8686 94.8309L26.8211 94.832L26.7411 94.8292L26.6514 94.8196L26.5533 94.8L26.4771 94.776L26.1163 94.7893L26.1142 94.7901L26.0837 94.7984L26.0579 94.8052L26.0256 94.8123L25.988 94.8194L25.954 94.8241L25.9209 94.828L25.8783 94.831L25.8197 94.8323L25.6666 94.8224L25.4707 94.7767L25.2513 94.6658L25.055 94.471L24.9441 94.229L24.9184 94.0075L24.94 93.8287L24.9816 93.6863L25.0148 93.6068L25.0529 93.5338L25.1008 93.4606L25.1584 93.3894L25.2265 93.3216L25.3011 93.262L25.3821 93.21L25.4423 93.1798L25.4902 93.157L25.5511 93.1317L25.6115 93.1085L25.6777 93.0842L25.7524 93.0576L25.8359 93.0288L25.9291 92.9973L26.0342 92.9623L26.0899 92.9444L26.1374 92.9289L26.1821 92.9139L26.2242 92.8994L26.2649 92.8849L26.3033 92.8709L26.3396 92.8572L26.3732 92.8443L26.392 92.8368L26.4185 92.7973L26.48 92.7143L26.546 92.6336L26.61 92.5622L26.6198 92.5288L26.6381 92.4672L26.6557 92.4097L26.6729 92.3551L26.6899 92.3037L26.7218 92.212L27.0993 91.5071L27.1004 91.5026L27.1026 91.4927L27.1046 91.4819L27.1063 91.471L27.1064 91.4701L27.1073 91.4582L27.109 91.4323L27.1103 91.4135L27.1112 91.3978L27.1118 91.3874V91.2538L27.1891 91.0935L27.2091 91.0565L27.2278 91.0237L27.2489 90.9869L27.2745 90.943L27.3039 90.893V90.893ZM30.4467 92.5471L30.5246 92.4972L30.6317 92.4415L30.749 92.4017L30.8365 92.3783L30.9224 92.3603L31.0071 92.3467L31.0922 92.3368L31.1778 92.3302L31.264 92.3265L31.3456 92.3254H31.4429L31.505 92.3252L31.5623 92.3247L31.6162 92.3238L31.666 92.3226L31.712 92.321L31.7548 92.3192L31.7933 92.3171L31.8262 92.3148L31.8552 92.3124L31.8797 92.3099L31.8987 92.3075L31.9056 92.3066L32.2015 92.1951L32.6281 92.0816L32.7157 92.0506L32.8258 92.0113L32.9304 91.9737L33.0286 91.9383L33.1208 91.9046L33.2076 91.8727L33.2888 91.8426L33.363 91.8148L33.4312 91.7889L33.4935 91.7649L33.5491 91.7432L33.5977 91.7236L33.6397 91.7064L33.6742 91.6918L33.7005 91.6802L33.7906 91.6385L34.1556 91.5481L34.1892 91.5358L34.2571 91.511L34.3208 91.4878L34.3801 91.4663L34.4357 91.4459L34.4873 91.4271L34.5352 91.4097L34.5782 91.3943L34.6174 91.38L34.6536 91.367L34.6861 91.3553L34.7124 91.346L34.7378 91.3369L34.7608 91.329L34.7809 91.3222L34.906 91.2816L35.0276 91.2799L35.0348 91.2797L35.0528 91.279L35.0741 91.2782L35.6206 91.0317L35.7467 91.0061L35.7845 90.927L36.1129 90.8045L36.1608 90.7866L36.2037 90.7706L36.2423 90.7561L36.2757 90.7434L36.304 90.7327L36.3286 90.7232L36.3599 90.7113L36.4137 90.6924L36.4532 90.6778L36.4954 90.6615L36.5403 90.6434L36.5884 90.6232L36.6393 90.6012L36.6936 90.5769L36.7503 90.551L36.8093 90.5233L36.8709 90.4938L36.9356 90.4621L37.0028 90.4287L37.072 90.3937L37.144 90.3568L37.2186 90.318L37.326 90.2614L37.4385 90.2143L37.5123 90.1833L37.5786 90.155L37.6371 90.1298L37.687 90.1079L37.7277 90.0895L37.7591 90.0749L37.7627 90.0731L37.7678 90.07L37.7957 90.0528L37.8328 90.0299L37.8787 90.0012L37.9334 89.9671L37.9962 89.9276L38.0676 89.8827L38.1475 89.8323L38.2355 89.7768L38.3318 89.7161L38.4362 89.6502L38.5491 89.5788L38.7999 89.4205L38.9436 89.3296L39.5622 88.9559L39.9669 88.5697L40.6283 88.1127L40.6284 88.1125L40.629 88.1121L40.6384 88.1038L40.6545 88.0887L40.6761 88.0674L40.7025 88.0402L40.7327 88.0077L40.7705 87.9657L40.7969 87.9363L40.8344 87.8974L40.8731 87.8595L40.9141 87.8204L40.9589 87.7789L41.008 87.7343L41.0614 87.6866L41.1195 87.6356L41.1825 87.5808L41.2503 87.5223L41.3234 87.46L41.4015 87.3937L41.4848 87.3237L41.5733 87.2495L41.6675 87.1712L41.7097 87.1363L41.727 87.1134L41.7556 87.0755L41.7901 87.0295L41.8394 86.9639L41.8721 86.9244L41.9025 86.8883L41.9382 86.8463L41.9794 86.7986L42.0264 86.7444L42.0796 86.6834L42.1396 86.6153L42.199 86.5481L42.232 86.509L42.259 86.4739L42.2845 86.4375L42.3088 86.3993L42.3317 86.3598L42.3534 86.3184L42.3738 86.275L42.399 86.215L42.4157 86.1762L42.44 86.1258L42.4657 86.0779L42.4921 86.0321L42.5196 85.9874L42.5482 85.9428L42.5783 85.8979L42.6098 85.8526L42.6433 85.8057L42.6783 85.758L42.7148 85.7095L42.7532 85.6591L42.794 85.6067L42.8363 85.5533L42.8804 85.4982L42.9217 85.4472L42.997 85.3511L43.061 85.2668L43.1123 85.1966L43.1498 85.142L43.1627 85.1217L43.3555 84.6209L43.6338 84.0942L43.662 84.0334L43.6975 83.9585L43.7323 83.8872L43.7664 83.8198L43.7996 83.7566L43.8326 83.6962L43.8666 83.6378L43.9905 83.4375L44.1643 82.804L44.1713 82.7772L44.1785 82.7471L44.1859 82.7139L44.1934 82.6791L44.2009 82.642L44.2085 82.6017L44.2154 82.5637L44.2474 82.3616L44.253 82.3236L44.2541 82.3148L44.2562 82.3002L44.2579 82.2878L44.2598 82.2737L44.2683 82.2075L44.2757 82.1832L44.3554 81.6797L44.3576 81.6591L44.3594 81.6453L44.3181 81.0018L44.3033 80.933L44.2818 80.8313L44.2634 80.7429L44.248 80.6671L44.2356 80.6034L44.2259 80.5515L44.2234 80.5375L44.2186 80.5347L44.1345 80.4729L44.0631 80.4113L43.9995 80.3499L43.9396 80.2862L43.6764 79.9849L43.6697 79.9825L43.5313 79.887L43.4505 79.8176L43.3802 79.7509L43.3079 79.6773L43.2302 79.5948L43.1457 79.5016L43.1071 79.4579L42.7661 79.2099L42.7559 79.1989L42.2088 78.7962L39.5903 78.0905L37.7329 77.7819L37.5783 77.7781L36.6194 77.7158L35.817 77.7436H35.1936L35.1343 77.742L35.0638 77.7366L34.9932 77.7269L34.9209 77.7131L34.8462 77.6935L34.7848 77.673L34.7476 77.8083L34.5407 78.1329L34.5164 78.1826L34.4735 78.2669L34.4307 78.3479L34.388 78.4256L34.3452 78.5002L34.3295 78.5262L34.3226 78.5893L34.3096 78.6682L34.2915 78.748L34.2843 78.773L34.2839 78.781L34.2805 78.8285L34.2761 78.8749L34.2706 78.9215L34.2642 78.9689L34.2568 79.0163L34.2488 79.0639L34.2397 79.1136L34.2299 79.1638L34.2193 79.2145L34.208 79.2664L34.1957 79.3204L34.1828 79.3753L34.1787 79.392L34.1478 79.6415L33.8932 80.2865L33.7684 80.7363L33.6474 80.8819L33.6226 80.9121L33.5993 80.9407L33.5807 80.9636L33.5266 81.1322L33.5189 81.2233L33.4263 81.4442L33.0158 82.7227L32.6932 83.6823L32.2673 84.942L32.262 84.9757L32.2552 85.0195L32.2486 85.0629L32.2423 85.1072L32.2359 85.1518L32.2298 85.1967L32.2062 85.3737L32.1149 85.5328L32.0917 85.5739L32.0693 85.6142L32.0475 85.6541L32.0267 85.693L32.0067 85.7312L31.9931 85.7578L31.7838 86.448L30.4215 90.5198L30.4194 90.5265L30.4146 90.5411L30.4124 90.5479L30.4092 90.5574L30.4027 90.5758L29.7368 92.575L30.4373 92.554L30.4467 92.5471V92.5471Z"
                fill="#1F1A17"
              />
              <path
                d="M22.5463 94.1766C24.1029 94.1766 25.3649 92.9783 25.3649 91.5001C25.3649 90.0219 24.1029 88.8236 22.5463 88.8236C20.9896 88.8236 19.7277 90.0219 19.7277 91.5001C19.7277 92.9783 20.9896 94.1766 22.5463 94.1766Z"
                fill="#1F1A17"
              />
              <path
                fill-rule="evenodd"
                clip-rule="evenodd"
                d="M62.9416 78.954V36.3183L62.166 24.4892L66.2933 17.035C67.1646 16.9865 67.9983 16.5441 68.49 15.7767C69.289 14.5296 68.8828 12.8966 67.5829 12.13C66.2831 11.3634 64.5809 11.753 63.7819 13.0002C63.2025 13.9046 63.2572 15.0118 63.8266 15.8445L61.7816 18.6281L61.4363 13.3623C62.1521 12.8831 62.6209 12.0874 62.6209 11.1866C62.6209 9.72273 61.3836 8.53552 59.8578 8.53552C59.5485 8.53552 59.2513 8.58443 58.9736 8.67443V22.4503L50.15 34.4606L47.0832 39.1804L26.8834 21.107C26.8513 21.1366 26.8196 21.167 26.7887 21.1984C25.7413 22.2624 25.7913 23.9407 26.9004 24.9463C27.7049 25.6751 28.8456 25.8498 29.8116 25.4852L45.5041 41.6104L28.118 68.3671C27.287 69.6641 27.7095 71.3623 29.0612 72.1595C30.4129 72.9568 32.1831 72.5515 33.014 71.2546L49.7413 45.5117L57.1945 52.2656V78.9539C57.1945 80.4762 58.4813 81.7108 60.068 81.7108C61.6547 81.7108 62.9415 80.4762 62.9415 78.9539L62.9416 78.954ZM58.9736 30.2548V49.5741H58.6999L51.3657 43.012L55.0461 37.3481L58.9736 30.2548V30.2548Z"
                fill="#1F1A17"
              />
            </svg>